<?xml version="1.0" encoding="UTF-8"?>
<!DOCTYPE svg PUBLIC "-//W3C//DTD SVG 1.1//EN" "http://www.w3.org/Graphics/SVG/1.1/DTD/svg11.dtd">
<!-- Creator: CorelDRAW X6 -->
<!-- <svg xmlns="http://www.w3.org/2000/svg" xml:space="preserve" width="16in" height="9.48611in" version="1.1" style="shape-rendering:geometricPrecision; text-rendering:geometricPrecision; image-rendering:optimizeQuality; fill-rule:evenodd; clip-rule:evenodd"
viewBox="0 0 16000 9486" -->
<svg xmlns="http://www.w3.org/2000/svg" xml:space="preserve" width="16in" height="4.743055in" version="1.1" style="shape-rendering:geometricPrecision; text-rendering:geometricPrecision; image-rendering:optimizeQuality; fill-rule:evenodd; clip-rule:evenodd"
viewBox="0 0 16000 4743"
 xmlns:xlink="http://www.w3.org/1999/xlink">
 <defs>
  <!-- <style type="text/css">
   <![CDATA[
    .fil2 {fill:black}
    .fil1 {fill:black;fill-rule:nonzero}
    .fil0 {fill:black;fill-rule:nonzero}
   ]]>
  </style> -->
    <style type="text/css">
   <![CDATA[
    .fil2 {fill:#293241;}
    .fil1 {fill:#293241;fill-rule:nonzero}
    .fil0 {fill:#43526d;fill-rule:nonzero}
   ]]>
  </style>
 </defs>
 <g id="Layer_x0020_1">
  <metadata id="CorelCorpID_0Corel-Layer"/>
  <path class="fil0" d="M11904 1155c-5,-4 -13,-2 -18,0 -4,-4 -10,-4 -15,-3 -12,1 -23,4 -34,6 -14,3 -28,10 -42,13 -14,2 -28,0 -42,2 -34,4 -67,13 -100,21 -14,3 -23,8 -36,1 -13,-7 -28,-8 -43,-11 -65,-15 -125,-49 -192,-58 -33,-4 -76,-10 -109,-5 -23,4 -55,14 -75,0 -5,-20 -69,-16 -102,-18 -31,-2 -59,1 -90,-4 -22,-4 -55,-3 -69,-23 -5,-7 17,-17 23,-23 10,-8 19,-16 27,-26 19,-22 32,-47 40,-75 10,-8 12,-16 16,-27 2,-5 10,-19 16,-10 0,-2 -5,-11 -1,-12 2,0 3,-1 2,-3 2,2 4,5 6,7 4,-5 11,-10 10,-14 -1,-7 0,-11 4,-17 7,-11 2,-16 3,-27 1,-7 4,-15 7,-22 5,-13 14,-25 6,-38 -2,-4 -13,-11 -11,-15 4,-4 3,5 8,3 4,-10 -3,-36 -7,-45 -1,-2 -10,-14 -4,-14 0,-7 -3,-14 -8,-19 -5,-5 -10,-8 -16,-12 -8,-5 -8,-8 -11,-16 -8,-17 -21,-12 -36,-16 -15,-4 -32,-16 -48,-15 -7,0 -11,8 -15,1 -2,-3 -5,-7 -9,-7 -2,0 -6,-2 -8,-3 -8,-4 -13,-4 -22,-4 -16,-2 -31,-6 -46,3 9,0 21,-5 29,1 -17,2 -32,11 -49,12 -16,0 -35,7 -43,21 4,-1 9,-8 14,-6 -15,0 -30,45 -37,55 -10,16 -19,38 -21,56 -2,21 -20,34 -22,55 -2,23 2,51 7,73 2,6 4,15 9,19 5,4 12,2 15,7 1,12 7,23 3,35 -4,14 -21,47 -38,46 -15,-1 -28,-3 -43,3 -10,4 -20,9 -31,12 -14,3 -22,-3 -32,-11 -24,-20 -69,-30 -97,-44 -35,-18 -70,-37 -105,-55 -10,-5 -26,-19 -36,-10 -10,8 -24,-5 -33,-11 -24,-15 -53,-29 -72,-50 -68,-80 -164,-102 -246,-161 -22,-16 -49,-25 -75,-33 -60,-17 -128,-10 -184,-39 -7,-4 -50,-42 -49,-16 1,14 18,27 27,35 13,12 27,20 42,29 10,6 21,14 31,18 12,5 49,15 36,35 -8,12 -30,11 -42,15 -14,4 -28,21 -10,32 8,5 31,-4 40,-6 13,-3 26,-1 39,-5 13,-3 27,-7 39,-12 11,-5 25,-17 37,-16 12,1 22,13 29,22 29,33 65,63 96,94 44,42 96,97 151,124 17,8 34,15 49,25 8,5 28,20 28,20 0,0 -11,22 -14,34 -3,13 25,21 35,27 29,16 55,35 81,55 27,21 63,66 79,97 6,10 2,24 1,35 -3,24 -11,47 -18,70 -38,123 -25,273 -26,401 0,30 10,59 9,88 0,8 -7,35 0,40 11,9 11,-2 11,18 0,5 3,22 -2,25 -4,2 -5,5 -6,10 -3,11 1,23 3,34 6,29 12,57 22,86 6,16 12,31 18,47 0,6 -11,11 -12,19 -3,21 -7,53 5,72 9,15 29,2 31,17 2,15 5,30 7,45 5,34 9,68 14,102 10,71 11,143 20,214 17,137 58,261 94,393 5,18 9,36 13,54 3,12 8,29 3,41 -8,20 -12,53 14,62 7,2 20,10 20,10 0,0 -3,12 -3,18 -1,15 8,22 20,29 28,14 58,20 87,32 57,24 117,45 180,46 16,0 68,7 77,-12 11,-24 -8,-40 -21,-59 -13,-19 -43,-13 -58,-29 -4,-5 -9,-4 -14,-7 -2,-6 -7,-9 -12,-11 -9,-4 -10,-15 -20,-15 -6,0 -5,-12 -9,-15 -3,-3 -8,-1 -12,-1 -2,-11 -14,-12 -16,-19 -2,-11 -8,-12 3,-22 8,-7 18,-18 17,-30 -1,-18 -8,-35 -15,-51 -2,-4 -3,-11 -6,-15 -3,-4 -7,-5 -9,-9 -4,-32 -7,-64 -14,-95 -7,-34 -27,-60 -41,-91 -14,-30 -14,-65 -19,-98 -24,-135 -40,-294 -21,-430 6,-39 -6,-78 -10,-117 -1,-10 -5,-15 6,-17 14,-3 28,-6 41,-11 13,-5 23,-17 35,-20 16,-5 40,-7 57,-7 6,0 -1,27 -2,32 -5,31 -22,61 -25,91 -3,32 7,62 -5,93 -5,13 -14,31 -9,45 5,11 0,18 -1,29 -3,29 -9,57 -18,85 -20,59 -36,119 2,175 16,24 38,48 70,43 23,-3 46,-17 56,-38 13,-26 14,-59 14,-88 0,-15 0,-31 0,-46 0,-7 0,-15 0,-22 0,-11 0,-15 12,-11 17,6 36,12 54,15 12,2 17,-8 22,-17 12,-23 36,-37 49,-60 16,-27 7,-59 -3,-87 -4,-13 6,-27 9,-40 5,-26 -1,-67 11,-88 21,-40 30,-80 38,-123 6,-33 14,-66 4,-99 -8,-28 -20,-60 -40,-82 -61,-69 -177,-89 -264,-94 -14,-1 -46,-5 -46,-5 0,0 -7,-42 -7,-51 0,-15 4,-28 9,-42 11,-29 18,-60 25,-90 4,-19 7,-38 10,-57 2,-14 0,-28 14,-35 17,-8 24,-32 29,-48 8,-25 17,-50 31,-73 18,-28 49,-24 73,-41 22,-16 62,-29 89,-21 28,8 41,-3 62,-21 10,-8 24,-23 24,-23 0,0 33,-2 47,1 32,6 64,9 96,11 66,4 132,1 198,8 9,1 20,0 29,2 6,1 10,6 15,8 13,5 28,4 42,7 13,3 27,8 41,8 12,0 24,-5 36,-6 18,-2 67,2 61,-26 -6,-26 -39,1 -50,-15 2,-6 24,-12 30,-14 15,-7 31,-10 46,-17 11,-5 23,-5 35,-9 9,-3 26,-4 32,-11 5,-6 16,-24 11,-31zm-1373 963c-6,-1 -14,-2 -18,-8 -7,-9 8,-18 12,-25 6,-1 6,29 6,33zm280 -1449c-2,-6 9,-9 18,-9 -2,6 -14,4 -18,9z"/>
  <path class="fil0" d="M4140 3371c-9,-21 -23,-43 -29,-65 -8,-32 -9,-67 -16,-100 -7,-31 -11,-62 -21,-92 -20,-64 -23,-129 -49,-191 -23,-55 -38,-111 -60,-166 -6,-16 5,-17 7,-31 1,-12 -4,-27 -5,-39 -2,-31 -7,-62 -16,-93 -16,-56 -44,-117 -101,-142 -25,-12 -54,-14 -81,-9 -9,2 -23,11 -31,6 -12,-7 -25,-11 -36,-19 -11,-8 -22,-20 -29,-31 -7,-11 -4,-27 -5,-39 -1,-22 17,-51 27,-70 8,-2 13,2 20,-5 7,-7 11,-16 14,-25 7,-18 14,-36 16,-55 1,-9 1,-19 -6,-27 -3,-2 -8,-5 -5,-10 8,-13 -3,-38 -1,-53 1,-9 4,-22 -1,-30 -5,-8 -6,-12 -5,-22 1,-11 -5,-17 -12,-24 -6,-6 -6,-15 -10,-21 -20,-35 -70,-46 -106,-37 -14,4 -19,4 -32,-1 -10,-3 -20,-5 -30,-5 -21,0 -42,7 -61,16 -19,9 -33,19 -44,38 -4,6 -23,37 -19,42 3,3 -1,27 1,33 3,9 0,19 -1,29 0,5 -6,23 -3,26 6,6 3,12 3,20 0,3 3,16 0,18 -2,1 -3,2 -4,3 -5,9 -5,19 -3,28 5,20 15,41 24,60 3,7 8,14 14,18 10,0 14,-3 18,6 6,13 12,26 19,38 8,12 14,16 15,31 1,14 3,28 1,42 -1,13 -6,28 -18,36 -4,3 -8,1 -12,-2 -7,-4 -8,2 -13,7 -10,8 -24,2 -36,1 -13,-1 -26,1 -39,4 -65,18 -88,72 -111,130 -16,41 -50,126 -31,168 3,7 7,15 13,20 4,3 10,6 11,11 3,9 -1,20 -4,29 -7,26 -11,53 -20,78 -23,63 -41,124 -42,193 -1,36 -3,67 -9,102 -5,27 -1,62 5,88 7,34 17,68 27,101 7,25 12,53 6,79 -2,9 -9,24 -6,33 3,9 14,4 18,0 11,-12 17,-33 20,-48 8,-33 7,-67 11,-101 4,-33 42,12 47,20 3,4 15,12 14,17 -2,7 -5,14 -7,21 -7,22 -14,44 -18,66 -9,61 -24,125 -32,189 -9,68 -31,132 -38,201 -3,34 -13,67 -19,101 -12,60 -54,111 -54,173 0,32 -9,52 -24,79 -14,24 -22,49 -16,78 4,18 57,14 73,20 -2,7 -16,9 -14,17 2,9 -10,4 -8,14 2,10 -23,29 -30,36 -10,10 -21,19 -33,26 -24,16 -15,44 10,53 30,11 65,5 83,-1 38,-12 58,-19 85,-31 26,-13 44,-24 43,-57 -1,-14 -2,-28 -4,-42 0,-4 -3,-12 -2,-16 8,-1 17,-1 25,-2 12,-1 17,1 18,-12 0,-6 2,-12 3,-18 2,-12 0,-23 6,-35 13,-28 25,-57 32,-86 4,-17 1,-33 1,-50 0,-16 2,-32 4,-48 10,-65 16,-129 35,-192 9,-30 10,-62 19,-92 20,-62 59,-116 76,-180 8,-31 18,-64 33,-93 10,-20 32,-37 50,-50 10,39 24,75 38,113 31,88 48,180 68,271 19,86 46,185 33,273 -5,33 -2,66 -1,99 1,16 3,32 4,48 1,15 -2,26 -4,40 -3,26 1,54 25,69 7,4 16,7 13,15 -2,7 -6,12 -9,18 -8,20 -31,46 -4,60 26,14 58,14 82,14 31,0 55,0 78,-18 18,-15 -4,-39 -9,-55 33,0 82,3 95,-34 5,-16 9,-34 1,-50 -9,-17 -21,-35 -27,-54 -15,-43 10,-87 -5,-130 -15,-41 -26,-80 -31,-124 -12,-100 -21,-200 -39,-298 -6,-32 -7,-65 -14,-97 -7,-34 -15,-66 -18,-100 -1,-16 -2,-32 -3,-48 -1,-15 16,-8 25,-18 13,-14 -7,-43 -17,-50 -10,-7 -23,-15 -26,-28 -2,-10 -5,-20 -7,-30 -10,-44 -20,-89 -30,-133 -2,-8 -7,-20 -6,-29 0,-4 6,-8 6,-13 0,-7 -4,-13 -6,-20 -3,-14 -3,-29 -4,-43 -1,-68 -21,-134 -21,-203 0,-39 4,-77 7,-115 6,4 13,8 20,9 14,1 14,-4 20,11 7,18 14,34 23,51 21,37 24,82 39,121 15,40 38,77 58,114 11,21 21,42 30,63 5,12 6,14 1,25 -3,8 -8,14 -13,21 -10,14 -13,37 -13,54 0,9 1,14 -2,23 -2,6 -6,13 -1,19 13,14 34,4 35,-14 1,-8 9,-11 15,-8 7,4 8,12 12,18 8,13 16,28 20,42 4,13 12,31 19,42 7,12 12,29 27,32 10,2 15,17 29,10 21,-10 10,-30 2,-48zm-754 -158c0,10 -1,20 -2,29 -1,12 -12,8 -12,21 0,12 -2,23 -5,34 -5,17 -14,33 -21,50 -18,-7 -23,-35 -33,-48 -13,-19 -28,-32 -45,-47 -20,-16 -13,-33 -5,-55 9,-22 15,-45 24,-67 19,-48 38,-98 51,-148 6,-24 10,-47 14,-71 1,-9 1,-36 8,-43 0,-1 1,-2 2,-3 0,0 13,133 13,145 3,46 3,93 -3,139 -2,13 -18,43 1,46 14,2 12,2 12,17z"/>
  <path class="fil0" d="M16000 3335c-4,-12 -25,-19 -35,-25 -27,-16 -57,-32 -86,-43 -32,-12 -66,-14 -99,-21 -11,-2 -18,-9 -28,-15 -12,-7 -24,-13 -35,-22 -54,-41 -100,-93 -157,-130 -26,-17 -52,-35 -81,-48 -3,-12 0,-25 -3,-38 -5,-23 -38,-139 -38,-139 0,0 27,-49 22,-79 -5,-32 -13,-63 -33,-89 -9,-12 -30,-58 -30,-58 0,0 23,-22 34,-33 8,-8 17,-21 28,-25 26,-9 46,21 73,10 17,-7 12,-19 18,-32 5,-11 17,-8 16,-23 17,-7 12,-15 18,-30 11,-1 25,-4 25,-18 0,-7 -12,-17 -6,-24 7,-9 15,-17 23,-26 8,-10 1,-5 6,-16 5,-10 17,-21 16,-33 -5,5 -1,-4 1,-5 5,10 -7,35 -14,43 8,-8 13,-19 16,-30 2,-5 9,-27 6,-31 -3,-4 2,-22 3,-28 1,-11 3,-21 1,-32 -3,-23 -14,-44 -28,-62 -8,-10 -17,-19 -25,-28 -5,-5 -10,-19 -15,-22 3,6 -14,-13 -16,-15 -8,-7 -19,-15 -29,-18 -11,-3 -23,-2 -34,-6 -12,-5 5,-4 -6,-7 -6,-2 -10,-2 -16,-4 -16,-8 -24,-8 -40,-6 -7,1 -11,-2 -18,2 -5,3 -12,4 -18,5 -14,2 -28,5 -42,9 -10,3 -29,6 -36,15 2,0 4,-1 5,-2 -10,11 -24,17 -35,28 -11,12 -16,25 -25,38 -17,29 -24,62 -30,94 -3,15 -5,30 -7,46 -1,5 -6,31 -2,35 2,2 0,35 5,31 -7,10 7,17 10,25 1,-2 5,-5 5,-7 0,5 -2,12 1,16 0,0 11,-23 11,-15 0,3 -4,19 1,20 2,0 1,-6 4,-4 -1,1 3,7 5,7 0,-2 1,-4 2,-5 8,5 3,-1 9,-1 -1,2 5,14 7,15 0,-6 11,4 7,13 -3,6 -8,14 -13,18 -6,4 -13,5 -19,8 -6,4 -16,-5 -23,-7 -32,-11 -63,23 -93,6 -37,-21 -70,-18 -107,2 -14,8 -28,17 -42,25 -16,9 -38,17 -41,38 -2,12 2,37 2,37 0,0 -15,13 -24,17 -55,33 -116,57 -173,86 -18,9 -35,20 -55,25 -16,4 -28,19 -37,31 -39,57 -107,110 -158,156 -22,20 -40,44 -61,65 -24,24 -44,48 -53,81 -4,15 -9,29 -12,44 -2,10 7,17 1,26 -4,5 -25,35 -6,33 9,-1 19,-12 26,-17 11,-9 21,-19 34,-25 10,-6 16,-18 27,-24 12,-7 15,-19 30,-23 10,-2 23,-3 31,5 13,15 13,36 32,45 5,3 24,9 21,-5 -1,-5 -7,-11 -10,-14 -5,-6 -4,-9 -7,-16 -10,-24 -12,-52 -18,-77 -4,-16 -7,-24 5,-36 51,-56 135,-77 188,-135 8,-8 14,-22 25,-28 54,-28 113,-47 167,-73 1,0 22,-9 22,-9 -5,39 -14,77 -31,113 -11,23 -31,67 -53,82 -15,10 -28,15 -39,29 -11,14 -24,26 -38,37 -9,7 -24,13 -30,23 -6,11 23,15 27,25 -14,10 -36,19 -43,37 -5,14 -25,19 -38,27 -40,27 -70,67 -89,111 -21,49 -25,103 -39,154 -27,102 -80,199 -129,291 -12,23 -22,46 -34,69 -11,21 -20,30 -45,30 -25,0 -50,1 -75,4 -18,2 -49,0 -64,14 -17,15 -7,62 -7,62 0,0 -20,13 -28,18 -8,5 -17,11 -25,17 -55,41 -113,78 -170,117 -27,18 -47,9 -74,-5 -13,-7 -26,-10 -41,-10 -12,0 -20,-11 -35,-10 -28,2 -39,25 -48,49 -11,28 -18,56 -31,83 -13,28 -29,53 -18,85 9,25 22,49 36,72 15,23 30,46 47,68 12,15 30,21 45,4 7,-8 7,-19 6,-30 5,-4 6,-9 5,-15 -1,-4 -1,-19 -3,-23 0,0 -4,-25 -4,-27 7,-6 6,-20 14,-27 14,-15 24,-31 38,-47 3,-4 6,-8 7,-12 2,-9 6,-10 13,-15 13,-9 26,-17 40,-24 61,-36 114,-66 182,-86 35,-10 103,-32 103,-32 0,0 18,9 29,15 14,7 29,4 44,2 62,-7 127,-18 177,-58 51,-40 82,-97 116,-151 36,-59 79,-116 118,-171 19,-27 57,-81 57,-81 0,0 63,19 94,30 61,23 109,78 157,119 25,22 53,40 80,60 13,10 -4,14 -13,21 -13,10 -25,21 -35,32 -13,14 -23,30 -35,45 -8,9 -20,17 -19,31 11,7 43,27 43,27 0,0 -5,15 -7,23 -20,65 -28,133 -49,198 -20,61 -33,132 -63,189 -8,15 -18,28 -19,45 -1,6 0,13 0,19 -3,5 -9,7 -11,13 -7,20 0,37 19,43 28,10 62,6 91,7 28,1 56,3 83,4 31,2 63,3 94,-2 22,-3 53,-8 68,-25 8,-8 9,-24 7,-35 -2,-12 -17,-14 -27,-17 -24,-8 -60,-10 -77,-28 -8,-9 -26,-14 -36,-19 -9,-5 -23,-15 -33,-16 -2,-4 -7,-4 -11,-7 -4,-3 -5,-8 -9,-10 -3,-3 -7,-1 -9,-3 -2,-5 -4,-10 -5,-16 -4,-29 11,-60 22,-86 25,-58 61,-113 89,-169 6,-13 14,-25 21,-37 8,-15 7,-18 23,-12 22,8 50,-40 61,-54 19,-26 37,-53 49,-83 24,-62 14,-132 -23,-186 -38,-55 -88,-101 -128,-155 -40,-55 -78,-110 -124,-159 -11,-12 -23,-28 -36,-37 -9,-6 3,-23 10,-21 24,5 23,-34 27,-47 15,-49 55,-108 93,-142 25,-23 52,-42 76,-67 22,-24 42,-48 62,-74 18,34 15,79 28,116 13,34 43,55 73,72 76,44 156,80 232,120 18,9 34,20 52,29 9,5 13,5 21,13 7,6 14,12 22,16 28,15 66,20 97,21 8,0 15,-3 23,-5 8,-2 16,3 24,3 18,-1 22,14 36,18 7,2 13,-1 20,2 5,1 17,2 14,-7 -2,-7 -21,-20 -19,-25 8,3 26,10 30,-1zm-345 -979c0,1 -1,1 -1,1 0,-1 1,-1 1,-1z"/>
  <path class="fil0" d="M6590 1862c-5,-8 -23,-2 -30,-3 -7,-1 -21,-4 -27,-8 -10,-6 -22,-8 -33,-12 -8,-12 -21,-20 -33,-27 -25,-14 -51,-30 -78,-41 -17,-7 -25,-18 -39,-30 -57,-50 -114,-116 -181,-151 -27,-15 -58,-24 -84,-41 -15,-10 -30,-20 -45,-30 -4,-3 -21,-12 -22,-18 0,0 4,-8 5,-9 2,-6 -2,-8 -6,-12 -11,-11 -23,-22 -36,-32 -45,-38 -86,-89 -138,-115 -30,-15 -64,-13 -94,-25 -16,-6 -47,-21 -59,-34 -6,-6 -20,-13 -22,-20 -3,-11 3,-21 14,-23 23,-5 48,9 72,3 14,-3 20,-14 22,-27 2,-14 12,-22 15,-34 2,-6 6,-8 9,-14 2,-4 2,-9 4,-13 3,-8 2,-12 10,-15 5,-2 10,-5 12,-11 5,-11 -9,-24 -13,-34 -4,-11 -2,-19 6,-28 8,-10 10,-15 15,-26 4,-9 4,-1 9,-6 4,-4 5,2 9,3 -3,-8 1,-16 0,-24 -2,-8 -1,-17 -3,-25 -2,-9 -1,-18 -3,-27 -2,-9 -6,-15 -6,-25 0,-13 -19,-36 -28,-46 -10,-12 -23,-16 -36,-23 -16,-8 -28,-20 -46,-26 -15,-5 -31,-6 -45,-13 -15,-8 -31,-3 -45,-9 -14,-5 -32,-7 -47,-5 -10,2 -15,7 -24,12 -8,4 -16,0 -23,7 -12,11 -27,18 -38,30 -24,26 -33,66 -35,101 -1,21 -4,37 0,58 3,17 3,34 9,51 6,18 16,36 21,54 4,15 14,19 11,37 4,1 5,-9 8,-10 3,3 -1,15 4,16 0,-2 0,-4 3,-5 1,23 -12,42 -19,63 -7,20 -8,40 -33,36 -8,-1 -16,-3 -22,4 -5,6 -9,8 -17,4 -18,-9 -27,-22 -48,-25 -53,-6 -108,-9 -161,-17 -21,-3 -47,-13 -68,-10 -7,1 -8,6 -12,11 -4,5 -11,3 -16,2 -21,-2 -40,0 -61,3 -23,2 -21,-28 -26,-44 -26,-75 -83,-137 -106,-212 -4,-14 -6,-22 5,-33 6,-6 16,-12 20,-21 6,-13 11,-42 4,-55 -10,-17 -25,9 -27,8 -7,-17 -20,-32 -27,-50 -4,-10 -16,-29 -30,-21 -10,6 -4,12 -17,9 -6,-1 -11,1 -15,5 -8,8 -7,13 -18,14 -12,0 -14,13 -15,23 -1,9 -14,11 -18,20 -12,22 4,54 13,74 6,13 15,22 25,32 10,11 17,25 23,39 24,51 42,105 62,158 15,39 22,93 52,122 21,21 43,31 73,34 17,2 35,2 52,3 8,0 24,3 24,3 0,0 -1,12 -1,17 0,23 40,29 58,34 32,9 65,10 97,16 20,4 52,30 61,48 13,25 18,68 17,96 -1,33 11,52 16,85 10,65 4,130 35,189 15,29 23,56 31,88 4,14 -4,42 -5,56 0,6 25,8 25,14 -1,6 2,11 2,16 0,14 -9,27 -10,41 -1,13 1,27 1,40 -1,15 1,31 -2,46 -2,14 -11,25 -15,38 -23,62 -24,122 -33,187 -5,34 -19,66 -25,99 -18,98 -56,184 -91,277 -22,60 -67,116 -83,177 -8,30 -6,61 -23,88 -13,21 -30,43 -37,67 -6,19 -4,60 17,70 26,12 55,10 83,9 -6,32 -17,68 22,79 33,9 70,4 104,7 20,1 73,-6 53,-41 -14,-25 -38,-46 -53,-71 21,-6 32,-12 36,-34 2,-8 5,-14 0,-21 -4,-6 5,-19 7,-25 13,-37 28,-74 35,-113 14,-85 42,-159 82,-235 20,-38 38,-71 46,-114 6,-35 29,-65 45,-97 5,-10 80,-225 92,-222 12,4 24,24 32,34 29,36 57,75 78,116 30,57 75,105 103,164 28,58 43,119 58,181 13,56 25,130 48,182 13,28 34,52 47,80 5,10 6,23 9,34 1,5 1,12 5,16 8,1 16,1 24,1 6,0 11,0 17,1 0,6 0,11 0,16 0,8 1,17 2,25 1,11 1,22 5,33 6,19 40,22 56,32 29,18 55,7 86,-1 27,-6 59,-10 81,-28 9,-7 10,-27 -1,-32 -11,-5 -25,-6 -36,-10 -11,-4 -21,-12 -29,-20 -5,-4 -12,-6 -11,-13 1,-6 -8,-6 -12,-8 5,-6 -4,-8 -6,-12 18,-5 37,-10 54,-18 12,-6 8,-25 6,-36 -6,-29 -29,-48 -43,-73 -16,-30 -14,-65 -28,-95 -12,-27 -33,-50 -46,-77 -29,-60 -42,-125 -60,-189 -38,-131 -102,-261 -170,-378 -24,-41 -50,-85 -78,-124 -5,-6 -8,-23 -17,-24 -13,-2 -14,-28 -4,-32 10,-4 18,-10 17,-22 -1,-12 -6,-23 -9,-35 -4,-15 -5,-32 -8,-48 -11,-68 -43,-130 -62,-196 -10,-34 -24,-60 -19,-96 3,-22 10,-87 10,-87 0,0 79,70 84,75 8,7 15,13 22,21 5,5 9,16 15,19 11,-3 32,-31 32,-31 0,0 20,10 24,13 33,21 61,49 94,68 76,44 155,81 233,120 13,6 28,13 35,27 6,15 5,33 9,49 4,15 -1,32 20,34 19,2 14,-14 15,-26 17,1 31,-9 47,-9 19,0 20,25 24,38 3,8 20,47 34,31 5,-11 -10,-33 -11,-45 21,7 26,42 46,53 12,6 19,-3 13,-14 -4,-8 -11,-13 -13,-22 13,2 22,16 36,16 8,0 21,-8 12,-16 -8,-7 -38,-16 -39,-27 7,0 69,4 55,-19z"/>
  <path class="fil0" d="M9978 1434c-28,13 -65,28 -87,51 2,0 3,0 4,-1 -2,0 -21,28 -24,32 -11,16 -20,34 -30,51 -8,14 -16,28 -24,42 -3,4 -1,7 2,10 5,4 -2,15 -4,20 5,0 5,5 7,8 8,1 4,-10 11,1 4,7 0,11 0,19 0,14 10,1 17,4 2,14 -22,32 -31,40 -14,14 -30,27 -47,38 -11,7 -9,-4 -20,-3 -8,1 -16,7 -22,11 -20,13 -43,13 -64,24 -34,18 -46,48 -68,78 -38,53 -55,118 -78,178 -23,61 -65,109 -91,168 -16,35 -18,73 -36,107 -9,17 -20,33 -29,51 -10,21 15,16 29,21 -9,13 -17,29 -19,45 -5,53 -43,96 -49,151 -3,35 9,67 8,102 -2,61 -19,129 -32,189 -14,63 -34,127 -66,182 -32,54 -86,91 -136,127 -12,9 -53,28 -32,46 9,8 24,32 24,32 0,0 -91,200 -154,291 -18,26 -36,50 -56,74 -7,9 -11,18 -12,29 -2,15 -2,11 -14,15 -7,2 -11,23 -10,29 1,12 13,18 23,22 32,14 66,22 98,33 29,10 57,25 86,33 30,9 65,0 94,-9 14,-4 28,-9 41,-15 9,-4 27,-10 33,-19 6,-9 5,-23 2,-33 -3,-13 -20,-12 -30,-14 -16,-3 -32,-5 -47,-7 -9,-1 -17,-2 -26,-4 -12,-2 -8,-4 -15,-10 -2,-1 -7,2 -8,0 -2,-2 -1,-7 -5,-7 0,-3 -6,-2 -8,-2 -1,-6 -9,-10 -13,-15 -4,-6 -8,-7 -12,-13 -4,-7 -8,-7 -10,-15 -4,-13 -13,-4 -15,-22 -3,-31 16,-52 32,-76 39,-55 87,-105 135,-153 13,-13 38,-38 38,-38 0,0 14,0 17,-1 13,-1 23,-15 32,-23 66,-58 122,-122 163,-200 37,-70 107,-214 107,-214 0,0 32,69 47,105 13,31 29,60 41,92 4,12 8,18 -5,26 -38,25 -83,42 -123,65 -25,15 -12,27 4,42 16,15 4,21 -6,37 -18,27 -30,55 -44,84 -29,58 -73,119 -114,168 -19,22 -33,46 -50,70 -6,9 -13,17 -18,27 -2,5 -4,10 -5,16 -1,5 2,20 -4,20 -11,0 -14,14 -16,23 -2,12 4,18 15,23 26,12 55,17 82,25 28,8 60,14 86,26 32,15 64,10 98,4 27,-5 53,-13 79,-22 10,-3 17,-6 19,-17 2,-15 1,-26 -15,-31 -29,-9 -60,-9 -90,-17 -11,-3 -6,-6 -13,-12 -8,-2 -7,1 -11,-5 -2,-4 -8,-4 -12,-5 -1,-6 -11,-11 -14,-15 -8,-10 -20,-14 -24,-27 -5,-13 -14,-2 -17,-17 -7,-34 20,-51 40,-74 45,-50 96,-92 147,-136 11,-10 45,-34 45,-34 0,0 45,-11 67,-27 47,-34 90,-75 110,-131 22,-65 4,-124 -13,-187 -29,-107 -42,-218 -79,-323 -7,-21 -14,-41 -23,-61 -8,-17 -21,-33 -23,-51 -3,-28 -2,-58 0,-86 0,-9 2,-28 2,-28 0,0 15,-9 13,-23 -2,-16 -7,-33 -6,-50 4,-61 64,-104 93,-152 20,-32 41,-62 48,-101 7,-40 7,-120 7,-120 0,0 123,69 188,97 29,13 64,15 95,24 70,20 144,19 212,42 17,6 29,8 46,1 15,-6 18,-22 30,-30 14,-8 30,-12 45,-17 16,-5 28,-15 43,-20 12,-4 26,-7 34,-17 10,-13 -9,-13 -16,-15 12,-7 27,-7 39,-15 13,-9 7,-23 -8,-22 -29,2 -51,20 -72,-11 -8,-12 2,-27 6,-38 7,-18 14,-34 16,-53 1,-11 8,-33 -4,-41 -12,-7 -11,28 -17,34 0,-14 -16,-32 -19,-11 -2,13 3,33 -6,45 -3,-7 -4,-21 -15,-19 -8,2 -6,15 -5,21 1,12 0,60 -19,40 -8,-8 -18,-1 -14,9 5,13 10,14 4,28 -5,9 -8,22 -15,29 -17,-2 -34,-7 -50,-12 -60,-21 -116,-53 -177,-71 -28,-9 -56,-12 -85,-17 -32,-5 -58,-24 -86,-37 -29,-14 -61,-23 -91,-35 -13,-5 -28,-8 -40,-16 -2,-13 -13,-24 -13,-24 0,0 19,-20 23,-22 11,-5 24,-7 35,-2 17,8 23,30 36,43 16,17 31,11 46,-3 8,-8 19,-5 25,-13 7,-8 16,-2 23,-13 9,-14 13,-5 25,-4 13,1 14,-12 14,-21 1,-30 23,-36 45,-51 22,-14 61,-33 71,-59 13,-32 16,-70 2,-103 19,24 29,46 27,77 13,-38 -1,-81 -35,-103 14,2 22,11 30,22 -2,-8 -5,-15 -10,-21 -5,-6 -11,-10 -18,-12 -13,-5 -12,-3 -9,-17 6,-28 -7,-55 -33,-68 16,16 21,30 21,52 -6,-10 -8,-22 -14,-33 -7,-12 -16,-22 -26,-31 -11,-9 -24,-16 -37,-21 24,15 39,32 52,57 -16,-13 -26,-32 -41,-45 -3,-3 -29,-11 -28,-15 -2,7 -57,-11 -65,-11 -9,0 -17,-5 -26,-4 -13,1 -26,3 -38,8zm-258 986c-2,-3 -2,-7 -3,-12 3,2 5,8 3,12zm-319 -33c-5,13 -12,26 -18,39 -1,-9 4,-17 8,-25 1,-1 8,-18 10,-14z"/>
  <path class="fil0" d="M12614 2950c-7,12 10,32 17,41 10,13 29,-1 40,-7 14,-8 -9,-27 13,-32 17,-5 17,18 15,30 -4,22 17,18 28,9 2,-5 -3,-9 -1,-14 2,-6 6,-11 7,-18 4,-21 -1,-37 -2,-58 -1,-21 18,-38 33,-50 64,-52 139,-92 194,-154 13,-15 23,-31 42,-40 38,-19 71,-51 104,-77 17,-13 35,-34 55,-42 -4,40 -3,85 -14,124 -11,40 -43,68 -61,104 -18,36 -29,75 -47,111 -5,10 -25,32 -12,42 8,6 19,7 28,7 -19,39 -48,73 -64,114 -24,61 -15,128 2,189 18,64 41,127 60,191 26,86 46,180 60,269 5,32 -10,56 -23,85 -6,13 -14,24 -19,37 -2,6 -8,15 -8,15 0,0 -48,7 -76,8 -13,1 -26,12 -37,9 -11,-3 -23,3 -31,9 -22,14 -11,65 -10,87 1,30 -6,60 -4,91 2,34 20,67 37,95 13,21 37,66 68,55 39,-14 28,-59 26,-90 0,-10 0,-19 1,-29 1,-9 5,-17 5,-27 6,-4 3,-11 5,-17 8,-6 7,-7 5,-17 7,-6 15,-28 12,-39 -3,-9 -13,-7 -4,-16 7,-7 14,-13 23,-17 -6,67 -6,135 -13,202 -3,31 -6,61 -9,92 -3,31 -16,53 -33,77 -7,9 -12,19 -14,31 -2,9 1,10 -6,17 -4,3 -5,7 -6,11 -6,31 9,45 34,62 21,15 37,44 62,52 29,9 65,1 95,-1 27,-2 61,-6 81,-25 8,-8 13,-19 12,-31 -2,-15 -14,-19 -27,-21 -26,-6 -35,-14 -53,-31 -8,-8 -14,-20 -19,-29 -3,-6 -7,-14 -12,-19 -6,-6 -13,-7 -16,-15 -9,-25 -6,-52 -3,-78 3,-34 9,-68 20,-101 19,-56 44,-110 58,-168 1,-5 3,-11 4,-16 21,6 28,-1 35,-20 9,-25 17,-49 29,-73 5,-11 56,-22 66,-16 12,7 24,11 38,11 110,5 228,-66 219,-188 -5,-60 -37,-113 -53,-169 -17,-59 -29,-119 -46,-178 -17,-56 -33,-118 -63,-169 -27,-45 13,-111 -27,-151 6,-3 12,-7 17,-12 14,-14 -2,-19 -4,-34 -2,-13 9,-20 17,-27 65,-53 98,-157 141,-226 -7,11 60,107 65,120 11,28 18,55 34,81 18,29 39,56 56,86 7,12 14,25 17,39 3,13 -20,20 -28,29 -6,7 -17,16 -20,24 -3,10 -13,13 -16,22 -4,13 12,13 19,9 8,-4 13,-14 21,-16 11,-3 18,-5 27,4 -3,11 -3,22 9,29 7,4 24,18 32,10 6,-7 1,-12 2,-20 1,-12 11,-11 16,-20 2,-4 0,-10 2,-15 2,-7 7,-11 7,-19 0,-12 5,-26 2,-38 -4,-13 -9,-27 -13,-40 -11,-34 -28,-64 -37,-99 -8,-30 -20,-63 -32,-92 -5,-12 -15,-21 -21,-32 -8,-15 -14,-31 -20,-47 -8,-20 -27,-60 -27,-60 0,0 1,-19 8,-34 16,-36 -1,-75 -17,-108 -20,-40 -45,-42 -76,-68 -17,-14 -23,-37 -40,-52 -11,-10 -7,-13 -2,-26 6,-16 10,-33 16,-49 6,-19 10,-46 33,-50 25,-4 76,0 67,-41 -2,-7 -3,-14 2,-21 6,-8 0,-15 4,-22 5,-9 1,-15 -1,-24 -3,-11 9,-11 13,-18 10,-16 -17,-25 -23,-37 -9,-19 4,-31 3,-49 -1,-19 -9,-35 -16,-52 -2,-4 -24,-37 -6,-39 2,6 -3,13 2,18 1,-6 4,-12 4,-18 0,-11 -6,-6 -10,-11 1,-1 2,-1 2,-3 0,-2 -3,-3 -4,-6 -1,-4 -10,-6 -13,-10 -5,-6 -20,-26 -31,-21 1,0 2,1 3,2 1,5 -9,-5 -9,-5 -3,-4 -13,-5 -17,-4 -4,0 -28,-9 -30,-2 3,-9 -60,-20 -65,-19 21,-14 51,-17 75,-19 -18,1 -36,2 -54,5 -12,2 -25,5 -36,10 -9,4 -15,14 -22,8 -26,-22 -86,-1 -114,7 17,-4 82,-21 90,3 -15,-33 -87,29 -101,41 14,-11 29,-21 46,-28 -38,29 -64,75 -87,116 19,-29 40,-61 67,-82 -17,23 -29,53 -35,80 -3,15 -6,31 -8,46 -2,13 -12,40 -4,52 2,-6 -3,-18 4,-22 2,16 3,32 8,47 5,17 11,32 14,50 3,16 13,27 20,41 2,4 11,19 15,21 0,-2 -3,-8 -1,-9 1,4 6,17 11,17 -2,-6 2,-7 7,-7 3,-4 -5,-9 -1,-13 11,3 14,21 19,29 4,6 9,2 9,-4 0,-10 8,1 11,0 0,-6 3,-6 4,-11 1,-2 7,18 6,21 0,10 -4,22 -13,28 -20,15 -48,-10 -73,0 -56,22 -108,-24 -162,1 -24,11 -45,29 -65,46 -14,13 -35,24 -30,46 1,3 14,39 14,39 -17,17 -34,32 -53,46 -98,74 -197,158 -272,256 -33,43 -76,92 -118,127 -7,6 -14,12 -21,19 -10,9 -14,17 -21,28 -3,4 -9,7 -11,13 -1,3 3,7 1,10 -3,5 -9,9 -9,15 0,4 7,9 5,13zm803 -699c-1,-1 1,-2 1,-1 1,0 0,2 -1,1zm-57 1320c6,13 16,25 21,38 -21,0 -42,0 -62,3 -7,-56 -16,-112 -18,-168 7,-3 54,115 60,126z"/>
  <polygon class="fil1" points="0,2767 87,2767 87,0 0,0 "/>
  <polygon class="fil2" points="2866,2610 1316,2610 1316,2718 1415,2718 1415,3871 1445,3871 1445,4475 1562,4475 1562,3871 2614,3871 2614,4475 2731,4475 2731,3871 2767,3871 2767,2718 2866,2718 "/>
  <path class="fil0" d="M5779 4451l5 -34c1,-8 -1,-16 -7,-22 23,-132 81,-470 99,-577 20,2 38,-1 53,-10 71,-48 85,-177 130,-262 103,-192 289,-386 275,-398 -61,-50 -278,291 -315,361 -37,69 -117,224 -193,198 -76,-27 -404,-189 -466,-218 -96,-45 -186,0 -196,22 -9,21 35,14 92,14 -37,43 -137,161 -232,271 -50,59 -99,115 -135,157 -13,15 -24,28 -33,39 -9,-1 -18,2 -23,9l-22 27c-10,12 -7,32 8,45 15,12 35,13 46,0l22 -27c5,-6 7,-14 5,-23 38,-44 113,-132 189,-220 54,-63 109,-127 151,-176 21,-25 39,-46 52,-61 7,-8 12,-14 16,-19 0,0 0,0 0,0 14,4 42,13 77,27 28,11 62,25 97,41 63,34 124,69 157,87 49,26 129,82 199,107 -10,57 -32,185 -54,311 -18,105 -36,208 -46,268 -8,4 -14,11 -16,20l-5 34c-3,16 11,31 30,34 19,3 37,-7 39,-23z"/>
  <path class="fil0" d="M9946 4435l-9 -34c-2,-8 -8,-14 -15,-17 -32,-130 -115,-463 -141,-568 19,-6 35,-16 44,-31 46,-72 6,-196 14,-293 17,-217 109,-470 91,-475 -76,-21 -137,379 -143,457 -6,78 -17,252 -97,258 -80,6 -446,-11 -514,-12 -106,-2 -170,75 -170,99 0,23 37,-2 90,-25 -16,55 -61,203 -103,341 -22,74 -44,145 -60,198 -6,19 -11,36 -15,49 -9,3 -15,9 -18,18l-10 33c-4,15 7,32 26,38 19,5 37,-3 42,-18l10 -33c2,-8 1,-16 -4,-23 17,-56 50,-166 84,-278 24,-80 48,-160 67,-222 9,-31 17,-57 23,-77 3,-10 5,-18 7,-24 0,0 0,0 0,0 15,-3 44,-5 81,-6 31,-1 67,-2 105,-2 72,6 141,14 178,16 55,4 151,23 225,18 14,56 45,182 76,306 26,103 51,205 66,264 -6,7 -9,16 -6,24l9 34c4,16 23,24 41,19 19,-5 31,-22 27,-37z"/>
  <path class="fil0" d="M11759 4435l-9 -34c-2,-8 -8,-14 -15,-17 -32,-130 -115,-463 -141,-568 19,-6 35,-16 44,-31 46,-72 6,-196 14,-293 17,-217 109,-470 91,-475 -76,-21 -137,379 -143,457 -6,78 -17,252 -97,258 -80,6 -446,-11 -514,-12 -106,-2 -170,75 -170,99 0,23 37,-2 90,-25 -16,55 -61,203 -103,341 -22,74 -44,145 -60,198 -6,19 -11,36 -15,49 -9,3 -15,9 -18,18l-10 33c-5,15 7,32 26,38 19,5 37,-3 42,-18l10 -33c2,-8 0,-16 -4,-23 17,-56 50,-166 84,-278 24,-80 48,-160 67,-222 9,-31 17,-57 23,-77 3,-10 5,-18 7,-24 0,0 0,0 0,0 15,-3 44,-5 81,-6 31,-1 67,-2 105,-2 72,6 141,14 178,16 55,4 151,23 225,18 14,56 45,182 76,306 26,103 51,205 66,264 -6,7 -9,16 -6,24l9 34c4,16 23,24 41,19 19,-5 31,-22 27,-37z"/>
  <path class="fil0" d="M8473 3497l-34 -5c-8,-1 -16,2 -22,7 -132,-21 -471,-75 -578,-93 2,-20 -1,-38 -11,-53 -48,-70 -178,-82 -264,-127 -193,-101 -390,-284 -401,-270 -49,62 295,274 364,310 70,36 226,115 200,191 -26,76 -184,406 -212,468 -44,97 2,186 25,196 21,9 13,-35 13,-92 44,36 163,135 274,228 59,50 116,98 159,133 15,13 29,24 39,33 -1,9 2,18 9,23l27 22c12,10 33,6 45,-9 12,-15 12,-35 0,-46l-27 -22c-6,-5 -14,-7 -23,-5 -45,-37 -133,-111 -222,-186 -64,-53 -128,-107 -178,-149 -25,-21 -46,-38 -62,-51 -8,-6 -14,-12 -19,-16 0,0 0,0 0,0 3,-14 13,-43 26,-77 11,-29 24,-62 39,-98 34,-64 68,-125 85,-158 25,-49 81,-130 104,-200 57,9 185,30 312,50 105,17 208,33 269,43 4,8 11,14 20,16l34 5c16,2 31,-11 34,-31 3,-19 -8,-37 -24,-39z"/>
  <path class="fil0" d="M13503 4435l-9 -34c-2,-8 -8,-14 -15,-17 -32,-130 -115,-463 -141,-568 19,-6 35,-16 44,-31 46,-72 6,-196 14,-293 17,-217 109,-470 91,-475 -76,-21 -137,379 -143,457 -6,78 -17,253 -97,259 -80,6 -446,-11 -514,-12 -106,-2 -170,75 -170,99 0,23 37,-2 90,-25 -16,55 -61,203 -103,341 -22,74 -44,145 -60,198 -6,19 -11,36 -15,49 -9,3 -15,9 -18,18l-10 33c-5,15 7,32 26,38 19,5 37,-3 42,-18l10 -33c2,-8 0,-16 -4,-23 17,-56 50,-166 84,-278 24,-80 48,-160 67,-222 9,-31 17,-57 23,-77 3,-10 5,-18 7,-24 0,0 0,0 0,0 15,-3 44,-5 81,-6 31,-1 67,-2 105,-2 72,6 141,14 178,16 55,4 151,23 225,18 14,56 45,182 76,306 26,103 51,205 66,264 -6,7 -9,16 -6,24l9 34c4,16 23,24 41,19 19,-5 31,-22 27,-37z"/>
  <path class="fil0" d="M15783 4435l-9 -34c-2,-8 -8,-14 -15,-17 -32,-130 -115,-463 -141,-568 19,-6 35,-16 44,-31 46,-72 6,-196 13,-293 17,-217 109,-470 91,-475 -76,-21 -137,379 -143,457 -6,78 -17,253 -97,259 -80,6 -446,-11 -514,-12 -106,-2 -171,75 -171,99 0,23 38,-2 90,-25 -16,55 -61,203 -103,341 -23,74 -44,145 -60,198 -6,19 -11,36 -15,49 -9,3 -15,9 -18,18l-10 33c-5,15 7,32 26,38 19,5 37,-3 42,-18l10 -33c2,-8 0,-16 -4,-23 17,-56 50,-166 84,-278 24,-80 48,-160 67,-222 9,-31 17,-57 23,-77 3,-10 5,-18 7,-24 0,0 0,0 0,0 15,-3 44,-5 81,-6 31,-1 67,-2 105,-2 72,6 141,14 178,16 55,4 151,23 225,18 14,56 45,182 76,306 26,103 51,205 66,264 -6,7 -9,16 -7,24l9 34c4,16 23,24 41,19 19,-5 31,-22 27,-37z"/>
  <polygon class="fil2" points="5599,3205 4473,3205 4473,3282 4545,3282 4545,3473 4583,3473 4599,4475 4664,4475 4680,3473 5389,3473 5404,4475 5470,4475 5485,3473 5527,3473 5527,3282 5599,3282 "/>
  <polygon class="fil2" points="7422,3205 6296,3205 6296,3282 6368,3282 6368,3473 6406,3473 6422,4475 6487,4475 6503,3473 7212,3473 7227,4475 7293,4475 7308,3473 7350,3473 7350,3282 7422,3282 "/>
  <polygon class="fil2" points="9245,3205 8119,3205 8119,3282 8191,3282 8191,3473 8229,3473 8245,4475 8310,4475 8326,3473 9035,3473 9050,4475 9116,4475 9131,3473 9173,3473 9173,3282 9245,3282 "/>
  <polygon class="fil2" points="11117,3220 9995,3129 9989,3206 10060,3211 10045,3402 10083,3405 10018,4404 10083,4410 10180,3413 10886,3470 10821,4469 10886,4475 10982,3478 11024,3481 11040,3291 11111,3297 "/>
  <polygon class="fil2" points="12891,3205 11765,3205 11765,3282 11837,3282 11837,3473 11875,3473 11891,4475 11956,4475 11972,3473 12681,3473 12696,4475 12762,4475 12777,3473 12819,3473 12819,3282 12891,3282 "/>
  <polygon class="fil2" points="14714,3205 13588,3205 13588,3282 13660,3282 13660,3473 13698,3473 13714,4475 13779,4475 13795,3473 14504,3473 14519,4475 14585,4475 14600,3473 14642,3473 14642,3282 14714,3282 "/>
  <path class="fil0" d="M210 4426l11 -42c3,-10 9,-17 19,-21 40,-161 143,-575 176,-707 -24,-8 -43,-20 -55,-39 -57,-90 -8,-244 -17,-364 -21,-270 -135,-585 -114,-591 95,-26 171,471 178,568 7,97 21,314 121,322 100,8 554,-13 640,-15 132,-3 212,94 212,124 0,28 -47,-2 -112,-31 20,68 76,252 128,424 28,92 55,181 75,247 7,24 13,44 19,61 11,4 19,11 22,22l12 42c6,19 -9,40 -32,47 -23,7 -47,-3 -52,-22l-12 -42c-3,-10 -1,-20 5,-28 -21,-69 -63,-206 -105,-345 -30,-99 -60,-199 -83,-276 -12,-38 -21,-71 -29,-95 -4,-12 -7,-22 -9,-29 0,0 0,0 0,0 -18,-3 -55,-6 -101,-8 -38,-1 -83,-2 -131,-2 -89,7 -176,17 -222,20 -69,5 -188,29 -280,22 -17,69 -56,226 -95,381 -32,128 -63,255 -82,329 7,9 11,20 8,30l-11 42c-5,19 -28,30 -51,24 -23,-6 -38,-27 -33,-46z"/>
  <polygon class="fil2" points="6882,3207 7337,3207 7337,3178 6882,3178 "/>
  <polygon class="fil2" points="5907,4475 6362,4475 6362,4446 5907,4446 "/>
  <polygon class="fil2" points="12710,3083 12578,2647 12606,2639 12737,3075 "/>
  <polygon class="fil2" points="5076,634 4807,1001 4784,984 5052,617 "/>
  <path class="fil2" d="M2038 1261c15,28 23,73 14,109 -10,40 -20,145 -62,168 -2,3 -13,-2 -15,-6 -7,12 -6,17 -6,24 1,14 9,37 15,50 3,6 8,15 8,15 0,0 19,-1 25,2 7,4 18,22 26,35 17,27 30,62 38,104 12,66 5,136 4,202 -1,61 -19,120 -26,179 -3,29 -10,58 -17,86 -10,38 -25,76 -39,113 -11,28 -22,57 -33,85 -7,19 -16,56 -39,62 -5,1 -19,-1 -23,-2 -5,-2 -6,-4 -6,-4 0,0 -17,29 -20,35 -31,61 -88,97 -156,105 -25,3 -53,4 -77,0 -5,-1 -17,-5 -21,-4 -7,1 -52,2 -61,1 -8,-1 -64,5 -72,6 -55,7 -113,15 -166,13 -7,0 -26,-2 -26,-2 0,0 6,20 7,23 8,17 17,34 21,53 4,19 2,36 0,55 -4,37 -8,74 -7,111 1,45 8,95 3,137 -1,6 -4,15 -4,15 0,0 9,12 11,18 8,16 9,24 -2,36 -3,3 -13,12 -13,12 0,0 15,18 17,20 4,6 13,18 13,26 0,11 -31,31 -44,39 -36,21 -73,39 -109,60 -19,11 -32,23 -53,31 -26,9 -90,18 -105,7 -5,-3 -10,-15 -10,-21 0,-12 18,-20 31,-28 13,-8 28,-15 37,-24 4,-4 4,-8 6,-11 4,-6 12,-10 17,-18 1,-2 5,-11 5,-11 0,0 -21,1 -28,-13 -11,-19 -26,-53 -20,-73 3,-9 12,-7 13,-14 2,-9 2,-51 2,-59 0,-24 -3,-43 -4,-73 -1,-39 5,-79 1,-118 -4,-32 -13,-68 -17,-105 -2,-20 0,-47 1,-70 0,-7 1,-21 1,-21 0,0 -12,-7 -22,-12 -8,-4 -22,-11 -22,-11 0,0 -14,4 -20,7 -22,9 -51,21 -79,22 -24,1 -48,-6 -67,-21 -31,-23 -30,-75 -7,-103 24,-29 71,-46 117,-52 7,-1 24,-1 24,-1 0,0 9,-8 16,-14 5,-5 15,-14 15,-14 0,0 1,-15 3,-20 4,-12 10,-27 16,-39 6,-11 11,-14 22,-22 5,-3 16,-11 16,-11 0,0 4,-15 6,-22 9,-33 31,-60 53,-88 12,-15 27,-25 43,-36 7,-5 11,-11 17,-16 26,-19 76,-22 106,-16 24,4 48,12 73,16 25,5 50,8 75,13 18,4 54,10 54,10 0,0 25,-5 35,-3 8,1 15,9 22,12 17,8 37,21 56,25 6,1 17,1 28,3 3,1 24,7 24,7 0,0 12,-19 15,-24 9,-15 21,-41 21,-41 0,0 -18,5 -32,4 -19,-2 -24,-23 -33,-37 -13,-23 -8,-49 -5,-74 1,-6 2,-15 2,-15 0,0 -13,-7 -15,-10 -6,-8 -8,-26 -10,-37 -1,-6 -4,-11 -4,-14 0,-7 3,-14 6,-22 5,-17 6,-27 23,-37 2,-1 16,-3 16,-3 0,0 11,-25 15,-34 9,-21 26,-40 45,-52 19,-12 31,-20 46,-36 17,-18 30,-46 42,-68 6,-10 9,-14 19,-23 4,-4 13,-12 13,-12 0,0 -1,-26 -3,-34 -2,-11 -13,-52 -18,-57 -7,-7 -41,-3 -55,-3 -9,0 -19,1 -27,-2 -7,-3 -15,-8 -17,-15 -6,-14 0,-25 -8,-36 -1,-2 -5,-2 -7,-8 -1,-3 2,-9 2,-9 0,0 -7,-6 -8,-9 -2,-7 2,-16 0,-21 -4,-8 -21,-2 -24,-13 -2,-12 9,-24 14,-33 4,-6 10,-22 10,-32 0,-12 -9,-13 -13,-26 -3,-12 -4,-33 -4,-33 0,0 -8,1 -9,5 0,1 -6,-5 -5,-10 2,-10 1,-19 4,-29 2,-7 -2,-23 1,-30 10,-27 10,-40 32,-59 14,-12 42,-34 63,-40 11,-3 32,-1 47,-8 20,-10 32,-8 54,-10 23,-1 48,0 70,6 44,12 81,34 101,71z"/>

  <!-- <path class="fil2" d="M5922 7348c9,-2 17,2 26,3 22,3 38,-2 58,9 7,4 14,4 21,9 8,5 12,13 20,18 42,24 77,65 65,116 -2,11 4,21 4,32 0,12 -7,24 -10,36 -5,25 -19,45 -34,65 -8,10 -16,20 -23,30 -5,8 -9,19 -17,23 1,0 -6,2 -6,2 -3,5 1,24 -6,19 -2,-1 -4,5 -5,-3 -5,3 -8,9 -11,14 -6,2 -6,-3 -8,-5 -3,1 -5,27 -5,27 0,0 15,-2 18,-2 5,1 11,8 19,14 18,13 37,26 53,43 32,36 57,86 74,130 16,42 34,84 48,127 16,50 18,102 24,153 6,49 14,98 9,147 -8,80 -42,154 -66,230 -2,7 -8,31 -18,32 -1,0 -5,-2 -5,-2 0,0 -8,10 -14,11 -4,1 -8,-1 -11,-2 -3,-1 -10,-3 -10,-3 0,0 -10,14 -11,16 -2,6 -1,12 -3,18 -7,16 -22,25 -36,35 -14,9 -25,29 -39,36 -6,3 -16,1 -24,3 -21,5 -40,15 -62,18 -30,4 -71,5 -100,-7 -6,-3 -12,-7 -21,-8 -35,-4 -71,4 -106,6 -68,5 -145,13 -216,3 1,10 10,20 13,30 9,30 16,56 14,88 -2,41 -6,85 -8,131 -1,30 -2,59 0,90 2,29 3,59 -6,86 -1,4 -5,11 -5,11 0,0 16,34 10,46 -1,3 -10,5 -16,6 -7,1 -21,2 -21,2 0,0 11,26 13,30 3,10 8,27 3,35 -6,11 -56,18 -72,22 -26,7 -52,15 -74,21 -59,16 -103,26 -160,29 -11,1 -38,3 -45,0 -5,-2 -8,-18 -6,-24 3,-7 18,-14 29,-19 10,-5 20,-11 30,-18 3,-2 6,-4 10,-6 4,-2 9,-3 11,-5 5,-5 5,-15 13,-16 8,-1 5,3 10,-5 0,-1 2,-6 3,-6 2,-2 8,0 10,-2 3,-3 3,-8 6,-11 4,-3 7,1 11,-5 -8,0 -18,2 -26,5 -16,5 -32,12 -48,18 -37,14 -83,31 -128,34 -28,2 -60,0 -80,-11 -10,-6 -22,-22 -18,-43 2,-9 19,-28 27,-34 27,-18 59,-26 86,-44 7,-5 28,-16 28,-16 0,0 -8,-27 -8,-42 0,-30 15,-65 34,-88 3,-4 10,-10 10,-10 0,0 4,-20 6,-30 4,-19 12,-36 18,-54 12,-36 51,-101 51,-101 0,0 10,-58 18,-86 13,-53 38,-106 67,-152 17,-26 39,-43 64,-61 30,-22 65,-32 101,-41 5,-1 64,-12 65,-15 0,0 1,-5 5,-9 12,-10 22,-24 35,-32 7,-4 19,-6 29,-10 19,-6 37,-9 59,-14 10,-2 20,-5 27,-10 17,-11 26,-35 38,-54 29,-44 60,-97 102,-130 8,-6 17,-15 26,-19 5,-3 21,-8 21,-8 0,0 5,-21 5,-30 0,-4 -2,-27 0,-28 0,0 -16,11 -22,11 -8,0 -18,-13 -18,-13 0,0 -11,7 -13,10 -10,10 -17,22 -26,32 -25,29 -55,69 -98,66 -17,-1 -39,-10 -50,-19 -17,-16 -27,-38 -40,-58 -20,-29 -45,-54 -63,-85 -11,-18 -20,-37 -32,-54 -11,-17 -25,-32 -34,-51 -7,6 -5,17 -11,29 -6,10 -17,15 -21,22 -4,7 -2,18 -8,21 -13,6 -25,-11 -26,-21 0,-10 9,-14 8,-26 -1,-12 -8,-22 -15,-31 -3,-4 -12,-8 -13,-9 -5,-2 -19,0 -30,-2 -6,-1 -11,-3 -14,-3 -17,1 -33,13 -45,22 -4,3 -13,13 -18,14 -9,3 -33,4 -35,-10 -1,-4 5,-11 8,-16 5,-8 7,-11 14,-17 6,-5 14,-9 17,-17 -12,2 -36,11 -38,-3 -2,-12 29,-19 43,-24 7,-2 13,-4 16,-5 8,-1 17,2 22,2 6,-1 12,-5 18,-6 10,-2 25,-1 40,-2 28,-2 70,-6 96,3 34,12 55,48 83,69 51,38 111,85 138,146 0,0 15,-20 15,-22 5,-12 23,-34 23,-34 0,0 -5,-10 -5,-14 3,-14 63,-75 78,-88 10,-9 34,-29 34,-29 0,0 -2,-14 -2,-21 1,-17 11,-40 11,-40 0,0 -7,-16 -11,-26 -9,-21 -16,-48 -21,-70 -2,-7 -2,-16 -2,-16 0,0 -15,0 -19,0 -18,-1 -51,-5 -64,-14 -5,-3 -13,-13 -14,-22 -2,-14 6,-21 0,-32 -3,-5 2,-14 2,-14 0,0 -12,-5 -12,-8 0,-6 7,-15 5,-21 -2,-8 -19,-6 -20,-19 -1,-18 27,-26 30,-43 3,-16 -6,-27 -8,-38 -1,-9 1,-14 -2,-24 -2,2 -3,7 -3,11 -4,-3 1,-12 2,-16 -1,-4 -7,3 -10,-2 0,-5 3,-10 5,-14 2,-6 2,-11 3,-16 1,-4 5,-8 6,-13 1,-5 0,-12 2,-18 3,-9 6,-21 11,-28 6,-8 14,-7 21,-12 7,-5 10,-15 18,-20 18,-12 40,-13 58,-26 5,-4 8,-10 15,-12 7,-2 15,1 22,0 2,0 5,-3 6,-3 18,-2 30,3 34,0zm-29 973c-34,37 -80,59 -118,91 -12,10 -25,20 -34,34 26,-6 62,-9 85,-14 0,0 22,-6 22,-6 0,0 -1,-10 0,-13 4,-15 20,-26 27,-40 8,-15 18,-52 18,-51z"/> -->

  <!-- <path class="fil2" d="M11295 7704c0,0 0,24 5,35 4,9 18,26 18,26 0,0 15,-8 22,-8 6,0 13,7 22,11 21,10 48,22 64,35 65,54 113,132 159,203 33,52 47,117 65,175 8,26 20,49 24,76 10,75 -10,144 -26,216 -8,35 -18,66 -32,99 -11,26 -13,61 -43,46 -3,-1 -13,-8 -13,-8 0,0 -10,15 -16,27 -8,15 -11,27 -19,38 -23,31 -61,50 -98,61 -36,10 -84,15 -122,6 -4,-1 -11,-5 -11,-5 0,0 -19,13 -27,16 -14,5 -27,3 -40,0 -4,-1 -9,0 -13,-2 -8,-3 -24,-14 -24,-14 0,0 -19,1 -29,2 -68,5 -134,10 -202,6 0,0 3,13 6,21 8,19 17,36 19,58 3,35 -6,69 -8,104 -3,60 7,124 2,184 -1,11 -6,34 -6,34 0,0 10,27 10,40 0,12 -5,19 -13,27 -3,3 -13,10 -13,10 0,0 9,23 6,34 -6,26 -91,37 -122,43 -49,10 -96,23 -139,26 -39,2 -98,-2 -88,-43 -32,7 -67,15 -110,13 -23,-1 -72,-6 -80,-19 -3,-4 -4,-20 -2,-27 1,-3 11,-14 19,-19 10,-6 26,-9 40,-16 6,-3 12,-8 18,-11 3,-2 7,-3 10,-5 2,-2 4,-5 6,-6 3,-1 7,1 10,0 3,-1 4,-6 8,-8 8,-4 10,-1 14,-8 0,0 3,-5 3,-5 3,-2 8,1 10,0 3,-3 4,-12 6,-13 6,-4 8,7 14,-2 2,-2 1,-6 5,-8 -1,0 5,-3 5,-2 1,-5 -8,-11 -11,-14 -24,-28 -8,-76 12,-102 4,-5 13,-8 16,-14 4,-7 5,-22 8,-32 5,-19 12,-40 19,-59 24,-65 52,-130 75,-197 18,-51 40,-106 70,-152 8,-12 20,-18 30,-27 34,-31 77,-45 120,-59 46,-14 92,-26 139,-35 48,-10 97,-17 146,-25 10,-2 27,-3 27,-3 0,0 0,-19 0,-29 -1,-16 0,-34 2,-51 5,-46 18,-89 21,-136 1,-11 2,-43 2,-43 0,0 -15,-3 -18,-6 -5,-6 -5,-47 -6,-72 -2,-51 -19,-95 -26,-144 -2,-16 3,-42 3,-42 0,0 -19,-27 -26,-38 -8,-13 -14,-27 -22,-42 -6,-11 -12,-24 -22,-26 -19,-2 -46,13 -69,11 -14,-1 -25,-3 -29,-18 -2,-9 4,-15 -2,-20 -3,-4 -14,-1 -17,-7 -4,-7 7,-20 7,-20 0,0 -16,4 -19,-2 -5,-8 5,-14 -1,-22 -6,-6 -24,3 -31,-10 -7,-15 17,-40 16,-54 0,-10 -7,-16 -13,-27 -4,-7 -13,-27 -13,-27 0,0 0,12 -10,13 -15,-18 -8,-38 -5,-61 3,-24 5,-54 16,-72 2,-4 7,-7 11,-11 3,-3 8,-6 11,-10 5,-6 6,-16 12,-22 7,-7 19,-6 27,-11 7,-4 12,-11 19,-15 8,-5 18,-8 28,-11 19,-6 39,-10 58,-15 11,-3 22,-7 30,-8 3,0 6,2 10,2 5,0 8,-2 10,-2 8,2 14,10 21,11 11,2 23,-1 32,0 14,1 37,8 48,16 10,7 13,18 24,27 -2,7 -4,-3 -3,5 0,4 6,11 6,18 -7,-4 -8,-16 -16,-19 3,9 10,16 13,26 1,3 0,8 2,11 5,10 10,12 13,26 4,19 0,49 0,75 0,34 -9,65 -22,96 -3,6 -4,11 -8,19 -2,4 -13,14 -13,14z"/> -->

  <!-- <path class="fil2" d="M15861 7394c15,28 23,72 14,108 -9,39 -20,144 -62,167 -2,3 -13,-2 -15,-6 -7,12 -6,16 -6,24 1,14 9,37 15,49 3,6 8,15 8,15 0,0 19,-1 25,2 8,4 18,22 26,35 17,27 30,61 38,104 12,65 5,135 4,201 -1,60 -19,119 -25,178 -3,29 -10,58 -17,86 -10,38 -25,75 -39,112 -11,28 -22,57 -33,85 -7,19 -16,56 -39,62 -5,1 -19,-1 -23,-2 -5,-2 -6,-4 -6,-4 0,0 -17,29 -20,34 -31,61 -88,97 -155,104 -25,3 -52,4 -77,0 -5,-1 -17,-5 -21,-4 -7,1 -52,2 -61,1 -8,-1 -63,5 -72,6 -55,7 -112,15 -165,13 -7,0 -26,-2 -26,-2 0,0 6,20 7,23 8,17 16,34 21,52 4,19 2,36 0,55 -3,37 -8,73 -7,110 1,45 8,94 3,136 -1,6 -4,15 -4,15 0,0 9,12 11,18 8,16 9,23 -2,36 -3,3 -13,12 -13,12 0,0 15,17 17,20 4,6 13,17 13,25 0,11 -30,31 -44,39 -35,21 -73,39 -108,60 -19,11 -32,23 -53,30 -26,9 -89,18 -104,7 -5,-3 -10,-15 -10,-21 0,-12 18,-20 31,-28 13,-8 28,-15 36,-24 4,-4 4,-8 6,-11 4,-6 12,-10 16,-18 1,-2 5,-11 5,-11 0,0 -21,1 -28,-13 -11,-19 -26,-52 -20,-73 3,-9 12,-7 13,-14 2,-9 2,-50 2,-59 0,-24 -3,-42 -4,-72 -1,-38 5,-78 1,-117 -4,-31 -13,-68 -17,-104 -2,-20 0,-47 1,-70 0,-7 1,-21 1,-21 0,0 -12,-7 -22,-12 -8,-4 -21,-11 -21,-11 0,0 -14,4 -20,7 -22,9 -50,21 -79,22 -24,1 -48,-6 -67,-21 -31,-23 -30,-74 -7,-103 23,-29 70,-46 116,-51 7,-1 24,-1 24,-1 0,0 9,-8 15,-14 5,-5 15,-14 15,-14 0,0 1,-15 3,-20 4,-12 10,-27 16,-39 5,-11 11,-13 22,-22 5,-3 16,-11 16,-11 0,0 4,-15 6,-22 9,-33 31,-60 53,-87 12,-15 27,-25 43,-36 7,-5 11,-11 17,-16 25,-19 75,-21 105,-16 24,4 48,12 72,16 25,5 50,8 74,13 18,4 54,10 54,10 0,0 25,-5 35,-3 8,1 15,9 22,12 17,8 37,21 56,24 6,1 17,1 28,3 3,1 24,7 24,7 0,0 12,-19 15,-24 9,-14 20,-41 20,-41 0,0 -18,5 -32,4 -19,-2 -24,-22 -32,-37 -13,-23 -8,-49 -5,-74 1,-6 2,-15 2,-15 0,0 -12,-7 -15,-10 -6,-8 -8,-26 -10,-37 -1,-6 -4,-11 -4,-14 0,-7 3,-14 6,-22 5,-17 6,-27 23,-37 2,-1 16,-3 16,-3 0,0 11,-25 15,-34 9,-21 26,-40 44,-52 19,-12 31,-20 46,-36 17,-18 29,-46 42,-67 6,-10 9,-14 19,-23 4,-4 13,-12 13,-12 0,0 -1,-26 -3,-34 -2,-11 -13,-52 -18,-57 -7,-7 -40,-3 -54,-3 -9,0 -19,1 -26,-2 -7,-3 -15,-8 -17,-15 -6,-14 0,-25 -8,-36 -1,-2 -5,-2 -7,-8 -1,-3 2,-9 2,-9 0,0 -7,-6 -8,-9 -2,-7 2,-16 0,-21 -3,-8 -21,-2 -23,-13 -3,-12 8,-24 14,-32 4,-6 10,-21 10,-32 0,-12 -9,-13 -13,-26 -3,-12 -4,-33 -4,-33 0,0 -8,1 -9,5 0,1 -6,-4 -5,-10 2,-10 1,-19 4,-29 2,-7 -2,-23 1,-30 10,-27 10,-40 32,-58 14,-12 41,-34 63,-40 11,-3 31,-1 47,-8 20,-10 32,-8 53,-10 22,-1 47,0 69,6 43,12 80,34 100,70z"/> -->

  <!-- <path class="fil2" d="M7711 7382c5,3 9,8 14,11 17,13 27,33 40,49 6,8 10,20 15,29 6,11 10,24 13,37 -3,-1 -4,-4 -5,-8 -5,5 -1,14 -1,21 2,17 1,34 1,52 0,20 5,41 0,62 -4,18 -28,43 -41,54 -6,5 -14,-3 -14,-3 0,0 -7,4 -8,5 -10,10 -6,20 2,40 4,10 14,26 14,26 0,0 18,-2 21,-1 3,1 8,5 13,7 24,11 53,22 77,33 43,20 73,58 99,96 50,72 89,151 113,236 7,24 13,49 18,73 7,32 9,65 4,98 -4,32 -16,61 -23,93 -3,15 -5,30 -7,45 -2,12 -2,29 -12,38 -8,7 -7,17 -24,12 -2,-1 -9,-4 -9,-4 0,0 -4,14 -7,19 -5,9 -13,16 -16,26 -4,12 -3,24 -7,36 -10,32 -21,64 -40,92 -4,6 -7,13 -10,16 -4,3 -15,8 -15,8 0,0 -42,33 -65,47 -44,26 -105,34 -155,29 -30,-3 -58,-11 -91,-16 -42,-6 -92,-7 -138,-5 -58,4 -111,18 -180,13 10,32 35,55 43,88 3,12 7,26 2,37 -4,9 -19,16 -29,18 -3,1 -11,1 -11,1 0,0 -2,23 -3,29 -5,44 -21,88 -26,142 -3,43 -17,99 3,139 4,8 11,17 17,25 10,13 19,22 24,41 2,6 5,25 5,25 0,0 9,0 13,7 3,5 6,23 2,32 -5,11 -35,22 -59,28 -35,10 -70,18 -106,27 -33,9 -66,18 -100,20 -22,1 -60,3 -79,-12 -3,-2 -9,-13 -9,-13 0,0 -14,3 -24,6 -40,10 -83,15 -125,10 -14,-2 -36,0 -48,-9 -6,-4 -14,-20 -12,-34 4,-22 45,-38 62,-49 9,-6 20,-11 29,-18 3,-2 5,-6 8,-8 3,-2 6,-1 10,-3 3,-1 3,-5 7,-8 3,-2 9,-1 11,-3 2,-2 4,-6 7,-8 3,-2 8,-3 10,-4 4,-3 5,-8 8,-11 2,-1 5,0 8,-1 2,-1 4,-6 8,-9 3,-3 7,-4 10,-6 3,-3 7,-11 12,-14 2,-1 6,-1 6,-1 2,0 18,-31 20,-36 8,-15 13,-31 19,-46 13,-33 29,-65 38,-99 9,-34 15,-70 21,-105 4,-21 7,-43 11,-64 2,-9 6,-24 6,-24 0,0 -18,-19 -20,-35 -1,-16 3,-33 2,-49 -1,-12 -5,-22 -4,-35 1,-15 5,-29 6,-44 3,-27 28,-58 44,-79 11,-14 22,-18 36,-27 10,-6 17,-15 28,-21 35,-18 73,-27 110,-37 94,-26 185,-64 280,-87 28,-7 55,-12 83,-16 15,-2 34,-10 34,-10 0,0 6,-24 8,-30 12,-46 37,-88 43,-135 0,0 -25,-27 -34,-38 -26,-32 -35,-88 -42,-142 0,-4 -5,-47 -5,-47 0,0 -27,8 -34,10 -56,18 -109,33 -159,56 -40,18 -80,34 -123,49 -41,14 -92,24 -139,32 -15,2 -30,5 -45,6 -12,1 -26,0 -37,6 -9,4 -15,13 -21,21 -7,8 -14,13 -23,18 -13,7 -53,17 -64,2 -2,-2 -9,-5 -9,-5 0,0 -10,3 -18,4 -5,1 -12,0 -18,1 -13,2 -29,2 -46,2 -8,0 -23,-2 -33,-6 -3,-1 -4,-3 -8,-5 -7,-5 -22,-8 -20,-17 1,-6 5,-7 13,-4 -2,-4 -4,-7 -3,-13 5,-5 9,4 16,2 5,-1 4,-6 8,-6 8,-1 18,6 29,7 12,2 45,1 45,1 0,0 19,-11 31,-17 22,-10 45,-17 68,-27 11,-5 20,-12 29,-17 11,-6 24,-9 36,-13 58,-22 111,-55 170,-74 23,-7 47,-10 70,-17 8,-2 15,-8 23,-10 63,-24 124,-53 187,-77 13,-5 29,-12 29,-12 0,0 -7,-23 -4,-32 2,-6 8,-6 13,-9 3,-2 13,-8 13,-8 0,0 -8,-17 -12,-24 -11,-20 -29,-59 -54,-64 -25,-5 -46,16 -71,6 -19,-8 -10,-26 -23,-36 -2,-1 -5,-3 -6,-5 -2,-3 5,-19 5,-19 0,0 -18,2 -21,-2 -3,-5 0,-15 -4,-19 -6,-7 -25,-2 -27,-12 -4,-15 22,-41 21,-49 -1,-21 -18,-36 -22,-57 -2,-9 -2,-33 -2,-35 0,-3 -7,-1 -7,-3 -3,-5 -5,-25 -6,-31 -3,-16 8,-31 15,-45 10,-18 17,-31 35,-41 8,-5 14,-12 21,-16 15,-8 26,-22 42,-28 21,-8 44,-12 66,-15 15,-3 31,-4 46,-5 15,-1 22,1 35,9 9,6 19,11 29,14 6,2 14,3 21,6 1,1 3,1 4,2zm-611 1755c-4,8 -7,17 -8,26 -4,22 4,41 15,60 2,4 7,9 9,13 6,11 6,13 6,13 0,0 11,-6 13,-8 4,-5 3,-12 7,-16 2,-2 13,-4 13,-4 12,-19 3,-11 6,-23 11,-48 1,-121 -4,-159 0,-1 0,-2 -2,-2 -11,22 -22,43 -35,64 -7,11 -14,22 -19,34z"/> -->

  <!-- <path class="fil2" d="M13332 7665c0,0 -8,25 -17,26 -5,1 -10,-9 -10,-9 0,0 -8,24 -12,29 0,0 -5,5 -6,5 -6,2 -3,-9 -6,0 0,-1 4,21 4,21 0,0 12,-1 16,0 4,0 9,3 16,4 15,3 35,-2 48,2 18,6 32,23 42,38 8,11 13,26 22,35 21,21 33,51 47,77 29,57 50,117 63,180 14,66 24,137 21,205 -1,22 -1,45 -4,67 -3,22 -14,40 -19,61 -3,14 -4,28 -4,41 0,7 2,24 -4,29 -10,8 -34,-15 -34,-15 0,0 -3,13 -3,11 -1,10 0,23 -4,34 -2,4 -12,15 -12,15 0,0 -1,19 -3,27 -7,40 -23,80 -42,113 -2,3 -5,10 -6,11 -3,2 -16,8 -16,8 0,0 -18,18 -28,26 -45,37 -105,53 -162,54 -72,1 -139,-32 -210,-36 -30,-2 -61,-2 -91,0 -31,3 -62,9 -94,10 -10,0 -63,6 -63,6 0,0 12,23 15,30 9,19 17,40 22,61 3,12 10,34 0,44 -4,4 -36,6 -37,7 0,0 -4,21 -7,37 -5,30 -16,59 -24,89 -8,30 -12,60 -17,91 -6,39 -20,71 -9,112 3,10 10,22 17,33 10,18 26,31 25,60 0,2 -1,10 -1,10 0,0 11,4 13,6 5,6 6,30 2,35 -6,9 -57,20 -70,24 -73,21 -140,47 -229,53 -12,1 -31,1 -43,-1 -9,-1 -12,0 -16,-8 -1,-3 -7,-15 -5,-22 2,-11 25,-20 36,-26 14,-8 23,-14 36,-25 -44,13 -101,39 -167,31 -13,-2 -40,-6 -50,-13 -5,-4 -17,-28 -17,-38 2,-32 47,-48 69,-62 16,-10 32,-19 49,-30 2,-1 4,-5 6,-7 4,-2 6,-2 10,-3 2,-1 4,-5 6,-7 3,-2 7,-2 10,-3 2,-2 4,-5 6,-7 3,-2 7,-2 10,-3 8,-6 14,-15 22,-20 3,-2 9,-3 9,-3 0,0 6,-12 11,-19 12,-20 21,-39 31,-60 10,-21 21,-41 30,-62 12,-28 17,-60 25,-89 9,-32 17,-64 25,-96 3,-14 5,-29 5,-29 0,0 -16,-21 -18,-28 -2,-10 0,-24 -1,-37 -1,-15 -5,-29 -5,-43 -1,-23 6,-45 11,-67 6,-30 29,-52 48,-75 6,-7 10,-14 18,-19 49,-28 104,-37 158,-51 8,-2 21,-3 24,-5 4,-3 2,-9 4,-13 3,-7 11,-10 16,-15 17,-15 34,-30 54,-42 9,-5 29,-15 29,-15 0,0 17,-21 26,-31 17,-18 39,-35 59,-48 7,-4 14,-9 25,-10 20,-2 59,-1 59,-1 0,0 9,-10 16,-18 27,-35 55,-68 87,-98 4,-4 27,-22 27,-23 0,0 -11,-19 -12,-22 -16,-47 -10,-130 -9,-187 1,-31 -4,-57 1,-83 2,-8 8,-16 7,-23 0,-10 -11,-26 -17,-40 -11,-29 -16,-60 -43,-71 -19,-8 -47,13 -66,11 -12,-1 -27,-8 -28,-24 0,-2 2,-8 1,-11 -1,-2 -9,-4 -13,-11 -3,-6 4,-15 4,-15 0,0 -17,4 -21,-4 -3,-6 -1,-18 -3,-21 -5,-7 -23,-5 -26,-15 -2,-7 3,-14 8,-21 7,-11 10,-24 10,-29 0,-10 -8,-16 -12,-25 -4,-9 -5,-20 -7,-30 -4,-20 -12,-38 -14,-59 -2,42 13,79 26,110 -1,0 -24,-47 -29,-76 0,-2 -3,-12 -4,-14 -2,-16 -1,-28 4,-40 14,-35 40,-59 69,-83 13,-11 32,-21 47,-30 11,-7 26,-21 40,-18 6,1 16,1 27,-2 10,-3 23,-11 37,-7 31,8 58,20 86,33 62,29 90,101 88,165 -1,30 -4,62 -6,96 0,7 -3,19 -8,24 -1,-1 -1,-5 -1,-5zm-207 763c6,0 19,0 19,0 0,0 4,-8 6,-11 3,-5 6,-11 6,-11 0,0 -19,-3 -25,-3 -8,0 -26,-2 -26,-2 0,0 -9,6 -13,8 -6,4 -11,10 -17,14 -6,4 -17,15 -17,15 0,0 45,-8 67,-10zm-554 686c-4,7 -9,13 -11,18 -3,9 -6,22 -4,32 1,6 6,9 10,14 12,16 20,30 28,47 12,-47 15,-111 11,-168 -10,16 -24,39 -34,57z"/> -->

  <!-- <path class="fil2" d="M3802 5694c4,2 6,-5 9,-7 26,-12 26,29 19,48 -3,8 -6,16 -11,23 -5,6 -13,10 -16,18 -2,7 -1,17 -1,27 -1,18 -6,34 -13,51 -1,3 -1,5 -5,10 -3,6 -7,7 -8,19 -1,10 4,32 4,33 1,9 6,15 9,21 3,5 9,13 7,24 -1,6 -8,10 -13,12 -7,3 -17,1 -20,5 -2,2 -1,9 0,13 1,7 -1,13 -7,16 -3,1 -16,2 -16,2 0,0 8,16 6,19 -4,8 -15,6 -19,13 -3,6 0,23 -3,31 -2,6 -12,14 -19,15 -14,2 -26,-9 -41,-12 -16,-3 -32,-3 -40,13 -4,7 -7,20 -7,20 0,0 21,21 28,28 19,19 37,33 60,47 48,29 98,55 146,85 10,6 43,30 43,30 28,-26 51,-55 69,-89 12,-23 15,-49 25,-73 8,-21 25,-52 51,-52 11,0 22,18 22,18 0,0 14,-10 18,-7 2,1 3,5 3,5 0,0 13,-8 17,-11 8,-4 15,-5 20,-8 14,-8 27,-20 41,-28 15,-8 32,-12 47,-20 15,-8 28,-19 43,-27 15,-8 31,-14 45,-23 9,-5 16,-12 24,-17 5,-3 10,-4 15,-7 3,-2 4,-6 7,-8 5,-4 10,-5 15,-8 11,-6 18,-14 28,-24 12,-11 24,-25 41,-28 -1,2 -3,6 -3,6 0,0 8,8 5,20 -1,5 -9,15 -15,21 -3,3 -6,5 -9,8 -14,13 -33,33 -44,43 -4,3 -9,6 -16,11 -4,3 -15,12 -15,12 0,4 19,20 23,23 3,3 6,9 11,12 9,7 16,18 15,29 -2,23 -49,70 -59,69 -17,0 -61,-20 -61,-20 0,0 -12,6 -24,20 -11,13 -28,19 -40,24 -3,1 -25,5 -25,5l-8 12c0,0 6,4 6,9 0,5 -12,23 -12,23 0,0 8,8 6,14 -16,44 -47,80 -64,124 -13,32 -27,58 -46,88 -18,30 -40,59 -62,85 -9,10 -15,22 -30,24 -17,2 -35,-6 -51,-12 -7,-3 -57,-22 -57,-22 0,0 11,26 13,31 8,29 13,58 6,87 -7,29 -23,55 -38,80 -36,61 -19,139 -32,207 0,0 39,61 77,107 13,16 49,74 60,92 6,10 24,32 25,44 1,7 -6,14 -6,14 0,0 12,15 12,19 1,8 9,14 8,19 0,-1 -7,12 -7,12 0,0 26,19 36,23 18,9 37,17 54,27 19,11 37,23 57,32 26,12 48,42 77,47 10,2 23,-1 28,3 4,3 -1,9 -1,9 0,0 4,3 12,6 17,7 53,8 75,12 4,5 -5,8 -5,8 0,0 1,4 0,5 -3,4 -7,9 -11,11 -11,5 -34,6 -45,5 -8,0 -18,-3 -28,-5 -22,-4 -43,-10 -64,-19 -4,-2 -7,-5 -11,-5 -7,-2 -15,0 -21,-1 -12,-2 -20,-6 -29,-12 -4,-2 -7,-6 -12,-8 -7,-3 -38,-10 -41,-7 -3,3 2,14 4,17 5,12 23,24 23,37 0,11 -15,27 -29,25 -14,-2 -15,-19 -21,-32 -3,-6 -10,-11 -17,-20 -6,-8 -10,-18 -15,-21 -3,-2 -11,-3 -15,-4 -10,-4 -12,-4 -19,-13 -6,-8 -14,-25 -15,-40 0,-8 0,-14 -5,-19 -2,-2 -4,-2 -4,-2 0,0 -2,34 -7,40 -29,-6 -51,-40 -70,-61 -17,-19 -57,-57 -57,-57 0,0 -1,77 0,116 1,27 2,55 7,82 5,27 18,51 30,75 7,14 17,28 5,35 -5,3 -16,4 -16,4 0,0 5,39 9,59 7,38 17,74 25,111 16,78 38,156 59,233 6,22 13,45 20,67 6,17 12,36 4,54 -5,11 -17,10 -27,12 -6,1 -34,6 -33,12 0,0 4,21 4,28 -1,29 14,48 20,76 3,13 5,31 4,44 -2,24 -3,50 -8,74 -2,8 -3,17 -5,24 -5,13 -15,25 -19,41 -7,28 -4,63 -1,96 7,97 10,193 15,290 3,63 9,127 16,188 5,46 9,92 19,134 4,19 7,39 13,58 4,13 10,40 10,40 0,0 11,3 12,5 0,1 0,10 -1,12 -2,7 2,10 3,16 3,17 3,33 10,50 7,18 17,34 26,51 23,41 43,75 89,89 20,6 40,13 60,19 11,4 34,8 41,18 3,4 4,17 4,17 -1,13 -14,22 -23,32 -3,4 -4,6 -9,7 -15,5 -88,3 -109,4 -22,1 -46,2 -67,-6 -29,-12 -40,-45 -65,-62 -20,-14 -51,-22 -74,-31 -5,-2 -21,-8 -21,-8 -11,7 5,88 -9,95 -2,1 -15,0 -16,-1 -3,-2 -3,-30 -4,-37 -4,-34 -10,-52 -28,-76 -9,-11 -18,-22 -26,-34 -31,-41 2,-97 31,-130 7,-8 18,-19 16,-30 2,0 7,-3 7,-3 0,0 -2,-26 -5,-40 -24,-100 -43,-202 -74,-301 -9,-28 -18,-56 -29,-84 -28,-75 -46,-153 -45,-234 1,-71 16,-140 47,-204 6,-12 15,-24 17,-38 6,-31 -15,-59 -28,-85 -4,-7 -16,-31 -16,-31l-77 8c0,0 -6,11 -7,15 -6,23 1,47 -3,71 -4,22 -16,41 -24,62 -3,9 -4,18 -8,25 -6,12 -15,23 -24,33 -10,13 -17,22 -23,37 -3,7 -8,17 -11,27 -22,73 -29,151 -44,226 -4,21 -9,43 -13,64 -21,101 -34,231 -42,334 -2,28 -3,56 -1,84 1,11 0,26 0,26 0,0 8,6 8,8 0,4 -4,10 -4,15 -2,16 -3,36 -1,52 5,40 21,77 35,114 5,14 6,17 16,27 20,18 50,28 75,39 26,12 60,37 39,68 -1,2 -4,3 -5,5 -2,3 -35,1 -43,0 -36,-5 -77,-6 -112,-19 -25,-9 -44,-28 -60,-48 -36,-45 -85,-69 -98,-68 -15,1 -22,26 -25,40 -3,10 -6,26 -9,39 -1,5 -2,13 -3,13 -3,2 -20,-3 -21,-4 -1,-2 1,-19 3,-35 1,-16 4,-33 1,-49 -3,-14 -12,-36 -20,-48 -10,-14 -16,-27 -15,-45 1,-21 8,-40 18,-58 13,-23 38,-34 55,-53 6,-7 6,-15 15,-17 2,-1 5,-1 5,-1 0,0 4,-14 4,-17 2,-15 -1,-33 0,-51 2,-49 2,-139 3,-188 0,-34 -7,-68 -11,-102 -12,-110 -20,-225 13,-332 9,-30 21,-58 36,-86 13,-24 28,-47 44,-69 10,-14 29,-29 35,-45 12,-28 2,-61 -1,-91 -1,-8 -1,-20 -1,-20 0,0 -68,-18 -90,-27 -15,-6 -35,-4 -40,-23 -2,-7 6,-39 7,-51 3,-29 8,-70 11,-98 5,-43 9,-90 12,-133 4,-69 -9,-125 -2,-194 1,-5 1,-67 1,-67 0,0 -21,-5 -23,-9 0,-1 1,-13 1,-23 6,-89 9,-180 27,-268 13,-63 39,-126 66,-184 17,-35 39,-69 50,-107 11,-42 3,-85 0,-127 -7,-96 -5,-195 -24,-290 -6,-29 -14,-58 -16,-88 -5,-84 6,-171 33,-251 2,-5 9,-21 9,-21 0,0 -5,-8 -4,-15 0,-2 5,-9 5,-9 0,0 0,-5 1,-7 3,-5 13,-14 16,-20 8,-15 13,-35 15,-52 1,-10 -1,-17 1,-20 8,-12 40,-12 40,-12 0,0 0,-20 -1,-29 -2,-16 -5,-65 -5,-65 0,0 -9,-1 -15,-3 -13,-4 -23,-14 -27,-28 -2,-8 1,-12 -3,-20 -2,-5 -7,-12 -7,-12 0,0 -14,0 -24,-6 -11,-6 -16,-20 -26,-27 -5,-4 -9,-9 -13,-11 -6,-2 -23,-2 -25,-7 -1,-3 -7,-11 -6,-18 1,-6 9,-34 9,-38 1,-20 4,-10 7,-25 0,-2 3,-5 3,-7 0,-3 -2,-5 -1,-7 3,-5 12,-7 19,-11 3,-2 5,-5 8,-7 6,-3 11,-5 20,-5 3,0 11,1 11,1 0,0 4,-9 7,-16 22,-53 70,-91 125,-112 11,-4 22,-8 33,-11 12,-3 28,-6 41,-7 39,-3 79,6 115,21 39,17 73,40 94,78 3,5 9,14 9,25z"/> -->

  <!-- <polygon class="fil1" points="0,7755 88,7755 88,4950 0,4950 "/>
  <polygon class="fil2" points="2905,7596 1334,7596 1334,7705 1435,7705 1435,8874 1465,8874 1465,9486 1584,9486 1584,8874 2650,8874 2650,9486 2769,9486 2769,8874 2805,8874 2805,7705 2905,7705 "/> -->

  <!-- <path class="fil0" d="M6401 9446l-9 -34c-2,-8 -8,-14 -15,-17 -33,-131 -117,-469 -143,-576 20,-6 35,-16 45,-31 46,-73 6,-199 14,-297 17,-220 110,-477 93,-481 -77,-21 -139,384 -145,463 -6,79 -17,256 -98,262 -81,6 -452,-11 -521,-12 -108,-2 -173,76 -173,101 0,23 38,-2 91,-25 -16,55 -62,206 -104,346 -23,75 -45,147 -61,201 -6,19 -11,36 -15,50 -9,3 -16,9 -18,18l-10 34c-5,16 7,33 26,38 19,6 38,-3 42,-18l10 -34c2,-8 0,-16 -4,-23 17,-56 51,-168 85,-281 24,-81 49,-162 68,-225 9,-31 17,-58 23,-78 3,-10 5,-18 7,-24 0,0 0,0 0,0 15,-3 45,-5 82,-6 31,-1 68,-2 106,-2 73,6 143,14 181,16 56,4 153,24 228,18 14,56 46,184 77,310 26,104 52,207 67,268 -6,7 -9,16 -7,25l9 34c4,16 23,24 42,19 19,-5 31,-22 27,-38z"/>
  <path class="fil0" d="M8254 9446l-9 -34c-2,-8 -8,-14 -15,-17 -33,-131 -117,-469 -143,-576 20,-6 35,-16 45,-31 46,-73 6,-199 14,-297 17,-220 110,-477 93,-481 -77,-21 -139,384 -145,463 -6,79 -17,256 -98,262 -81,6 -452,-11 -521,-12 -108,-2 -173,76 -173,101 0,23 38,-2 91,-25 -16,55 -62,206 -104,346 -23,75 -45,147 -61,201 -6,19 -11,36 -15,50 -9,3 -16,9 -18,18l-10 34c-5,16 7,33 26,38 19,6 38,-3 42,-18l10 -34c2,-8 0,-16 -4,-23 17,-56 51,-168 85,-281 24,-81 49,-162 68,-225 9,-31 17,-58 23,-78 3,-10 5,-18 7,-24 0,0 0,0 0,0 15,-3 45,-5 82,-6 31,-1 68,-2 107,-2 73,6 143,14 181,16 56,4 153,24 228,18 14,56 46,184 77,310 26,104 52,207 67,268 -6,7 -9,16 -7,25l9 34c4,16 23,24 42,19 19,-5 31,-22 27,-38z"/>
  <path class="fil0" d="M10094 9446l-9 -34c-2,-8 -8,-14 -15,-17 -33,-131 -117,-469 -143,-576 20,-6 35,-16 45,-31 46,-73 6,-199 14,-297 17,-220 110,-477 93,-481 -77,-21 -139,384 -145,463 -6,79 -17,256 -98,262 -81,6 -452,-11 -521,-12 -108,-2 -173,76 -173,101 0,23 38,-2 91,-25 -16,55 -62,206 -104,346 -23,75 -45,147 -61,201 -6,19 -11,36 -15,50 -9,3 -16,9 -18,18l-10 34c-5,16 7,33 26,38 19,6 38,-3 42,-18l10 -34c2,-8 0,-16 -4,-23 17,-56 51,-168 85,-281 24,-81 49,-162 68,-225 9,-31 17,-58 23,-78 3,-10 5,-18 7,-24 0,0 0,0 0,0 15,-3 45,-5 82,-6 31,-1 68,-2 107,-2 73,6 143,14 181,16 56,4 153,24 228,18 14,56 46,184 77,310 26,104 52,207 67,268 -6,7 -9,16 -7,25l9 34c4,16 23,24 42,19 19,-5 31,-22 27,-38z"/>
  <path class="fil0" d="M11896 9446l-9 -34c-2,-8 -8,-14 -15,-17 -33,-131 -117,-469 -143,-576 20,-6 35,-16 45,-31 46,-73 6,-199 14,-297 17,-220 110,-477 93,-481 -77,-21 -139,384 -145,463 -6,79 -17,256 -98,262 -81,6 -452,-11 -521,-12 -108,-2 -173,76 -173,101 0,23 38,-2 91,-25 -16,55 -62,206 -104,346 -23,75 -45,147 -61,201 -6,19 -11,36 -15,50 -9,3 -16,9 -18,18l-10 34c-5,16 7,33 26,38 19,6 38,-3 42,-18l10 -34c2,-8 0,-16 -4,-23 17,-56 51,-168 85,-281 24,-81 49,-162 68,-225 9,-31 17,-58 23,-78 3,-10 5,-18 7,-24 0,0 0,0 0,0 15,-3 45,-5 82,-6 31,-1 68,-2 107,-2 73,6 143,14 181,16 56,4 153,24 228,18 14,56 46,184 77,310 26,104 52,207 67,268 -6,7 -9,16 -7,25l9 34c4,16 23,24 42,19 19,-5 31,-22 27,-38z"/>
  <path class="fil0" d="M13688 9446l-9 -34c-2,-8 -8,-14 -15,-17 -33,-131 -117,-469 -143,-576 20,-6 35,-16 45,-31 46,-73 6,-199 14,-297 17,-220 110,-477 93,-481 -77,-21 -139,384 -145,463 -6,79 -17,256 -98,262 -81,6 -452,-11 -521,-12 -108,-2 -173,76 -173,101 0,23 38,-2 91,-25 -16,55 -62,206 -104,346 -23,75 -45,147 -61,201 -6,19 -11,36 -15,50 -9,3 -16,9 -18,18l-10 34c-5,16 7,33 26,38 19,6 38,-3 42,-18l10 -34c2,-8 0,-16 -4,-23 17,-56 51,-168 85,-281 24,-81 49,-162 68,-225 9,-31 17,-58 23,-78 3,-10 5,-18 7,-24 0,0 0,0 0,0 15,-3 45,-5 82,-6 31,-1 68,-2 107,-2 73,6 143,14 181,16 56,4 153,24 228,18 14,56 46,184 77,310 26,104 52,207 67,268 -6,7 -9,16 -7,25l9 34c4,16 23,24 42,19 19,-5 31,-22 27,-38z"/>
  <path class="fil0" d="M15999 9446l-9 -34c-2,-8 -8,-14 -15,-17 -33,-131 -117,-469 -143,-576 20,-6 35,-16 45,-31 46,-73 6,-199 14,-297 17,-220 110,-477 93,-481 -78,-21 -139,384 -145,463 -6,79 -17,256 -98,262 -81,6 -452,-11 -521,-12 -108,-2 -173,76 -173,101 0,23 38,-2 91,-25 -16,55 -62,206 -104,346 -23,75 -45,147 -61,201 -6,19 -11,36 -15,50 -9,3 -16,9 -18,18l-10 34c-5,16 7,33 26,38 19,6 38,-3 43,-18l10 -34c2,-8 0,-16 -4,-23 17,-56 51,-168 85,-281 24,-81 49,-162 68,-225 9,-31 17,-58 23,-78 3,-10 5,-18 7,-24 0,0 0,0 0,0 15,-3 45,-5 82,-6 31,-1 68,-2 107,-2 73,6 143,14 181,16 56,4 153,24 228,18 14,56 46,184 77,310 26,104 52,207 67,268 -6,7 -9,16 -7,25l9 34c4,16 23,24 42,19 19,-5 31,-22 27,-38z"/> -->

  <!-- <polygon class="fil2" points="5676,8200 4534,8200 4534,8277 4607,8277 4607,8471 4646,8471 4662,9486 4728,9486 4744,8471 5463,8471 5478,9486 5545,9486 5560,8471 5603,8471 5603,8277 5676,8277 "/>
  <polygon class="fil2" points="7524,8200 6382,8200 6382,8277 6455,8277 6455,8471 6494,8471 6510,9486 6576,9486 6592,8471 7311,8471 7326,9486 7393,9486 7408,8471 7451,8471 7451,8277 7524,8277 "/>
  <polygon class="fil2" points="9372,8200 8230,8200 8230,8277 8303,8277 8303,8471 8342,8471 8358,9486 8424,9486 8440,8471 9159,8471 9174,9486 9241,9486 9256,8471 9299,8471 9299,8277 9372,8277 "/>
  <polygon class="fil2" points="11220,8200 10078,8200 10078,8277 10151,8277 10151,8471 10190,8471 10206,9486 10272,9486 10288,8471 11007,8471 11022,9486 11089,9486 11104,8471 11147,8471 11147,8277 11220,8277 "/>
  <polygon class="fil2" points="13068,8200 11926,8200 11926,8277 11999,8277 11999,8471 12038,8471 12054,9486 12120,9486 12136,8471 12855,8471 12870,9486 12937,9486 12953,8471 12995,8471 12995,8277 13068,8277 "/>
  <polygon class="fil2" points="14916,8200 13774,8200 13774,8277 13847,8277 13847,8471 13886,8471 13902,9486 13968,9486 13984,8471 14703,8471 14718,9486 14785,9486 14801,8471 14843,8471 14843,8277 14916,8277 "/> -->

  <!-- <path class="fil0" d="M853 9437l11 -43c3,-10 10,-17 19,-22 41,-163 145,-583 178,-717 -24,-8 -44,-20 -56,-39 -58,-91 -8,-247 -17,-369 -21,-274 -137,-593 -115,-599 96,-26 173,478 180,576 7,99 22,318 122,326 101,8 562,-13 648,-15 134,-3 215,95 215,125 0,29 -47,-2 -113,-31 20,69 77,256 130,430 28,93 56,183 76,250 7,24 14,45 19,62 11,4 19,12 22,22l12 42c6,19 -9,41 -32,48 -24,7 -47,-3 -53,-23l-12 -42c-3,-10 -1,-20 5,-29 -21,-70 -64,-209 -106,-350 -30,-100 -61,-201 -85,-280 -12,-39 -22,-72 -29,-97 -4,-12 -7,-22 -9,-30 0,0 0,0 0,0 -18,-3 -56,-6 -103,-8 -39,-1 -84,-2 -132,-2 -91,8 -178,17 -225,20 -70,5 -191,29 -284,22 -17,70 -57,229 -96,386 -32,130 -64,258 -83,333 7,9 11,20 8,31l-11 43c-5,20 -28,30 -52,24 -24,-6 -39,-27 -34,-47z"/>
  <path class="fil2" d="M15540 7682l-198 -23c0,0 -35,-11 -35,-14 0,-2 37,-3 37,-3l198 23 -2 16z"/> -->

  <!-- <polygon class="fil2" points="1490,7596 2016,7596 2016,7512 1490,7512 "/>
  <polygon class="fil2" points="2314,7596 2776,7596 2776,7583 2314,7583 "/>
  <polygon class="fil2" points="2346,7584 2808,7584 2808,7571 2346,7571 "/>
  <polygon class="fil2" points="2297,7572 2758,7572 2758,7559 2297,7559 "/>
  <polygon class="fil2" points="2330,7559 2792,7559 2792,7546 2330,7546 "/>
  <polygon class="fil2" points="2315,7546 2776,7546 2776,7533 2315,7533 "/>
  <polygon class="fil2" points="2379,7533 2841,7533 2841,7520 2379,7520 "/>
  <polygon class="fil2" points="2330,7521 2792,7521 2792,7508 2330,7508 "/>
  <polygon class="fil2" points="2314,7508 2775,7508 2775,7495 2314,7495 "/>
  <polygon class="fil2" points="2318,7496 2780,7496 2780,7483 2318,7483 "/>
  <polygon class="fil2" points="2351,7484 2813,7484 2813,7471 2351,7471 "/>
  <polygon class="fil2" points="2271,7471 2733,7471 2733,7458 2271,7458 "/>
  <polygon class="fil2" points="2322,7458 2784,7458 2784,7445 2322,7445 "/> -->

  <!-- <path class="fil2" d="M5416 7977c0,0 -87,-6 -167,-9 -80,-3 -229,3 -229,3l-28 230 520 0c0,0 -28,-53 -62,-50 -34,3 -59,19 -59,19 0,0 22,-31 22,-74 0,-43 3,-118 3,-118z"/>
  <polygon class="fil2" points="6976,8201 7438,8201 7438,8171 6976,8171 "/>
  <path class="fil2" d="M12962 8171l-199 2c0,0 -36,-7 -37,-9 0,-2 36,-7 36,-7l199 -2 0 17z"/>
  <path class="fil2" d="M9608 7998l-198 -23c0,0 -35,-11 -35,-14 0,-2 37,-3 37,-3l198 23 -2 16z"/>
  <path class="fil2" d="M6895 8197l-47 -193c0,0 -2,-37 1,-38 2,-1 15,34 15,34l47 193 -16 4z"/>
  <polygon class="fil2" points="8731,8201 9192,8201 9192,8171 8731,8171 "/>
  <polygon class="fil2" points="11283,8222 10844,8082 10853,8054 11292,8194 "/>
  <polygon class="fil2" points="12452,8201 12913,8201 12913,8171 12452,8171 "/>
  <polygon class="fil2" points="15195,8292 14760,8140 14769,8112 15205,8264 "/> -->

  <!-- <path class="fil0" d="M1908 9266c-14,-17 -3,-149 -3,-160 0,-8 -6,-14 -28,-20 -1,-3 -2,-6 -3,-9 -7,-18 -18,-41 -32,-60 -15,-18 -39,-39 -76,-57 -36,-18 -84,-31 -143,-33 -5,0 -9,0 -14,0 -54,0 -104,7 -149,15 -45,7 -86,14 -120,14 -3,0 -6,0 -9,0l0 0 -3 0c-13,0 -25,3 -35,9 -15,9 -23,24 -28,38 -5,14 -6,29 -6,43 0,8 0,15 1,21 -2,0 -3,0 -4,1 -17,3 -23,69 -17,114 6,46 -34,117 -49,149 -14,31 0,57 -6,100 -6,43 89,43 163,52 0,0 443,2 518,-1 74,-3 34,-82 49,-120 14,-37 9,-80 -6,-97zm-74 -189c-57,-9 -123,-3 -212,-20 -70,-14 -247,0 -327,7 -1,-6 -1,-12 -1,-18 0,-15 2,-31 8,-40 3,-5 6,-8 9,-10 4,-2 9,-4 16,-4l2 0 0 0c3,0 7,0 10,0 39,0 80,-8 125,-15 45,-7 93,-14 143,-14 4,0 9,0 13,0 55,1 97,14 129,29 32,15 53,34 64,47 8,10 16,24 22,38 -1,0 -2,0 -3,0z"/> -->

  <!-- <path class="fil1" d="M9976 7894c-7,-29 -18,-66 -33,-95 -9,-18 -22,-33 -32,-50 -4,-7 -9,-17 -16,-22 -7,-5 -19,-2 -19,-2 0,0 -3,-7 -5,-14 22,5 46,6 53,-2 6,-6 6,-29 8,-38 6,-41 16,-78 21,-119 3,-27 9,-52 9,-80 0,-11 -4,-38 -11,-51 -3,-8 -7,-17 -9,-27 -20,-81 -109,-117 -187,-113 -20,1 -41,1 -61,5 -21,4 -34,15 -50,27 -7,5 -14,7 -21,11 -13,8 -26,17 -37,27 -18,15 -24,32 -28,54 -1,8 1,16 1,24 0,6 -2,20 -2,22 1,7 9,11 9,11 0,0 1,25 3,33 3,13 13,24 12,38 0,6 -8,15 -14,22 -4,5 -12,16 -11,24 2,10 19,14 22,20 2,4 -2,12 0,18 2,5 12,12 12,12 0,0 -1,7 0,10 3,7 11,8 12,14 2,6 -2,14 1,21 2,4 6,7 10,9 15,9 32,3 54,1 28,-2 45,15 53,39 4,21 11,43 16,64 0,0 -12,11 -21,18 -16,14 -25,24 -38,40 -6,7 -15,16 -15,23 -1,10 9,31 9,31 -6,10 -11,20 -15,31 0,0 -11,7 -16,11 -14,12 -26,26 -40,39 0,0 -3,-3 -4,-4 -4,-3 -11,-8 -19,-5 -5,2 -11,17 -11,17 0,0 -8,2 -11,4 -1,1 -2,3 -3,4 -9,10 -24,16 -30,29 -2,5 -2,15 -2,15 0,0 -7,8 -9,13 -2,5 -3,17 -3,17 0,0 -4,2 -6,4 -16,16 -37,29 -46,48 -6,13 -3,22 1,37 7,27 10,43 43,39 5,-1 48,-13 48,-17 0,8 -4,15 -5,24 -3,30 -5,68 10,96 4,6 13,17 13,17 0,0 -6,18 -10,26 -4,9 -13,24 -13,24 0,0 -15,-4 -24,-5 -28,-5 -55,-7 -78,-9 -57,-4 -113,-1 -170,-2 -53,-1 -106,-19 -158,-16 -26,1 -61,7 -85,16 -21,8 -37,43 -52,59 -32,35 -24,76 -17,120 1,7 25,53 25,53 0,0 -24,28 -32,38 -8,11 -7,21 -8,33 -3,27 -10,53 -6,80 4,25 11,49 19,73 8,25 12,36 25,47 6,5 12,11 12,11 0,0 1,12 2,18 4,26 12,51 18,77 8,40 15,81 16,122 1,28 -1,55 0,83 1,21 3,65 3,65 0,0 -13,7 -15,17 -1,10 -3,11 -8,19 -5,8 -7,18 -11,26 -4,7 -10,13 -15,19 -5,7 -8,15 -13,21 -6,6 -15,9 -22,13 -8,5 -16,10 -24,15 -7,4 -18,9 -22,16 -5,8 -1,26 7,35 7,7 25,8 42,8 36,0 72,-7 104,-25 11,-6 20,-14 31,-20 31,-17 63,-33 94,-51 7,-4 38,-22 39,-27 2,-9 -10,-30 -13,-32 -3,-2 -8,0 -8,0l-10 -24c0,0 15,-4 21,-7 6,-3 13,-7 18,-10 55,-32 102,-77 152,-116 22,-17 62,-40 51,-73 -1,-3 -11,-16 -13,-17 -5,-4 -10,1 -10,1 0,0 -7,-19 -10,-22 -16,-24 -60,-30 -74,-50 -3,-4 -6,-12 -10,-19 -6,-11 -12,-23 -15,-36 -14,-52 -32,-105 -33,-160 0,0 41,-4 50,-5 62,-4 124,7 185,15 58,8 113,18 170,4 43,-10 86,-37 117,-69 34,-34 51,-83 58,-130 1,-7 2,-25 2,-25 0,0 9,-6 12,-14 3,-7 8,-42 8,-42 0,0 12,5 14,6 6,3 14,9 20,5 3,-2 5,-17 7,-32 6,-58 32,-112 42,-170 8,-44 15,-89 23,-133 6,-35 10,-71 11,-107 1,-47 1,-94 -10,-139zm-756 1126c-9,3 -3,6 -7,16 -1,2 -5,4 -7,6 -2,4 -1,9 -1,10 -4,5 -9,3 -11,10 0,1 0,5 0,7 -1,3 -7,4 -9,7 -2,3 0,8 -1,10 -1,2 -6,4 -7,6 -2,3 -1,7 -3,9 -2,3 -8,4 -10,7 -2,2 -2,6 -3,9 -4,7 -10,15 -15,23 -8,10 -22,27 -22,27 0,0 -7,-20 6,-76 5,-23 7,-48 10,-72 7,-47 25,-142 25,-142 0,0 3,-4 4,-4 5,-1 19,-5 19,-5 0,0 5,16 8,23 5,14 11,28 17,44 1,4 1,9 2,13 1,4 4,6 5,9 2,8 1,23 2,37 1,10 7,25 -1,28z"/> -->
 </g>
</svg>
